# Blender 5.2.2 LTS
# www.blender.org
mtllib earth lp.mtl
o Sphere
v -3.838024 0.099865 1.263262
v -3.682660 0.056124 1.261022
v -3.539475 -0.014908 1.258958
v -3.413973 -0.110501 1.257148
v -3.310976 -0.226981 1.255663
v -3.234442 -0.359872 1.254559
v -3.187313 -0.504067 1.253880
v -3.171399 -0.654025 1.253650
v -3.187313 -0.803983 1.253880
v -3.234442 -0.948178 1.254560
v -3.310976 -1.081069 1.255663
v -3.413973 -1.197549 1.257148
v -3.539475 -1.293142 1.258958
v -3.682660 -1.364174 1.261022
v -3.838024 -1.407915 1.263262
v -3.840695 0.099865 1.293333
v -3.687900 0.056124 1.320008
v -3.547083 -0.014908 1.344591
v -3.423656 -0.110501 1.366139
v -3.322362 -0.226981 1.383822
v -3.247094 -0.359872 1.396963
v -3.200744 -0.504067 1.405054
v -3.185094 -0.654025 1.407787
v -3.200744 -0.803983 1.405055
v -3.247094 -0.948178 1.396963
v -3.322362 -1.081069 1.383822
v -3.423656 -1.197549 1.366139
v -3.547083 -1.293142 1.344591
v -3.687900 -1.364174 1.320008
v -3.840695 -1.407915 1.293333
v -3.849473 0.099865 1.322338
v -3.705119 0.056124 1.376902
v -3.572081 -0.014908 1.427189
v -3.455473 -0.110501 1.471266
v -3.359775 -0.226981 1.507438
v -3.288664 -0.359872 1.534317
v -3.244875 -0.504067 1.550869
v -3.230089 -0.654025 1.556458
v -3.244875 -0.803983 1.550869
v -3.288664 -0.948178 1.534317
v -3.359775 -1.081069 1.507439
v -3.455473 -1.197549 1.471266
v -3.572081 -1.293142 1.427189
v -3.705119 -1.364174 1.376902
v -3.849473 -1.407915 1.322337
v -3.864021 0.099865 1.349161
v -3.733655 0.056124 1.429519
v -3.613509 -0.014908 1.503576
v -3.508200 -0.110501 1.568488
v -3.421775 -0.226981 1.621760
v -3.357556 -0.359872 1.661345
v -3.318009 -0.504067 1.685721
v -3.304656 -0.654025 1.693952
v -3.318009 -0.803983 1.685721
v -3.357556 -0.948178 1.661345
v -3.421775 -1.081069 1.621760
v -3.508200 -1.197549 1.568488
v -3.613509 -1.293142 1.503576
v -3.733655 -1.364174 1.429518
v -3.864021 -1.407915 1.349161
v -3.883778 0.099865 1.372773
v -3.772410 0.056124 1.475835
v -3.669773 -0.014908 1.570818
v -3.579811 -0.110501 1.654071
v -3.505981 -0.226981 1.722395
v -3.451120 -0.359872 1.773164
v -3.417337 -0.504067 1.804428
v -3.405930 -0.654025 1.814984
v -3.417337 -0.803983 1.804428
v -3.451120 -0.948178 1.773164
v -3.505981 -1.081069 1.722395
v -3.579811 -1.197549 1.654071
v -3.669773 -1.293142 1.570818
v -3.772410 -1.364174 1.475836
v -3.883778 -1.407915 1.372773
v -3.907987 0.099865 1.392267
v -3.819897 0.056124 1.514073
v -3.738713 -0.014908 1.626330
v -3.667554 -0.110501 1.724725
v -3.609156 -0.226981 1.805475
v -3.565762 -0.359872 1.865478
v -3.539040 -0.504067 1.902427
v -3.530017 -0.654025 1.914904
v -3.539040 -0.803983 1.902427
v -3.565762 -0.948178 1.865478
v -3.609156 -1.081069 1.805475
v -3.667554 -1.197549 1.724725
v -3.738713 -1.293142 1.626330
v -3.819897 -1.364174 1.514073
v -3.907987 -1.407915 1.392267
v -3.935715 0.099865 1.406892
v -3.874289 0.056124 1.542762
v -3.817678 -0.014908 1.667979
v -3.768058 -0.110501 1.777734
v -3.727335 -0.226981 1.867808
v -3.697076 -0.359872 1.934738
v -3.678442 -0.504067 1.975953
v -3.672151 -0.654025 1.989870
v -3.678442 -0.803983 1.975953
v -3.697076 -0.948178 1.934738
v -3.727335 -1.081069 1.867808
v -3.768058 -1.197549 1.777734
v -3.817678 -1.293142 1.667980
v -3.874289 -1.364174 1.542762
v -3.935715 -1.407915 1.406892
v -3.965899 0.099865 1.416087
v -3.933496 0.056124 1.560798
v -3.903634 -0.014908 1.694165
v -3.877459 -0.110501 1.811062
v -3.855978 -0.226981 1.906997
v -3.840016 -0.359872 1.978283
v -3.830186 -0.504067 2.022181
v -3.826868 -0.654025 2.037003
v -3.830186 -0.803983 2.022181
v -3.840016 -0.948178 1.978283
v -3.855978 -1.081069 1.906997
v -3.877459 -1.197549 1.811062
v -3.903634 -1.293142 1.694165
v -3.933496 -1.364174 1.560799
v -3.965899 -1.407915 1.416087
v -3.997378 0.099865 1.419499
v -3.995244 0.056124 1.567491
v -3.993278 -0.014908 1.703881
v -3.991554 -0.110501 1.823428
v -3.990139 -0.226981 1.921538
v -3.989088 -0.359872 1.994440
v -3.988441 -0.504067 2.039333
v -3.988222 -0.654025 2.054492
v -3.988441 -0.803983 2.039333
v -3.989088 -0.948178 1.994440
v -3.990139 -1.081069 1.921538
v -3.991554 -1.197549 1.823428
v -3.993278 -1.293142 1.703881
v -3.995244 -1.364174 1.567491
v -3.997378 -1.407915 1.419499
v -4.028942 0.099865 1.416996
v -4.057159 0.056124 1.562581
v -4.083165 -0.014908 1.696754
v -4.105958 -0.110501 1.814357
v -4.124664 -0.226981 1.910871
v -4.138565 -0.359872 1.982588
v -4.147124 -0.504067 2.026751
v -4.150014 -0.654025 2.041663
v -4.147124 -0.803983 2.026751
v -4.138565 -0.948178 1.982588
v -4.124664 -1.081069 1.910871
v -4.105958 -1.197549 1.814357
v -4.083165 -1.293142 1.696754
v -4.057159 -1.364174 1.562582
v -4.028942 -1.407915 1.416996
v -4.059379 0.099865 1.408675
v -4.116862 0.056124 1.546259
v -4.169840 -0.014908 1.673057
v -4.216275 -0.110501 1.784197
v -4.254383 -0.226981 1.875407
v -4.282701 -0.359872 1.943182
v -4.300138 -0.504067 1.984917
v -4.306026 -0.654025 1.999010
v -4.300138 -0.803983 1.984917
v -4.282701 -0.948178 1.943182
v -4.254383 -1.081069 1.875407
v -4.216275 -1.197549 1.784197
v -4.169840 -1.293142 1.673057
v -4.116862 -1.364174 1.546259
v -4.059379 -1.407915 1.408675
v -4.087518 0.099865 1.394855
v -4.172059 0.056124 1.519150
v -4.249973 -0.014908 1.633702
v -4.318265 -0.110501 1.734107
v -4.374310 -0.226981 1.816508
v -4.415956 -0.359872 1.877736
v -4.441602 -0.504067 1.915441
v -4.450262 -0.654025 1.928172
v -4.441602 -0.803983 1.915441
v -4.415956 -0.948178 1.877736
v -4.374310 -1.081069 1.816508
v -4.318265 -1.197549 1.734107
v -4.249973 -1.293142 1.633702
v -4.172059 -1.364174 1.519151
v -4.087518 -1.407915 1.394855
v -4.112278 0.099865 1.376068
v -4.220628 0.056124 1.482298
v -4.320484 -0.014908 1.580200
v -4.408009 -0.110501 1.666013
v -4.479838 -0.226981 1.736437
v -4.533213 -0.359872 1.788767
v -4.566080 -0.504067 1.820991
v -4.577178 -0.654025 1.831872
v -4.566080 -0.803983 1.820991
v -4.533213 -0.948178 1.788767
v -4.479838 -1.081069 1.736437
v -4.408009 -1.197549 1.666013
v -4.320484 -1.293142 1.580201
v -4.220628 -1.364174 1.482298
v -4.112278 -1.407915 1.376068
v -4.132708 0.099865 1.353035
v -4.260703 0.056124 1.437118
v -4.378664 -0.014908 1.514609
v -4.482058 -0.110501 1.582530
v -4.566911 -0.226981 1.638272
v -4.629962 -0.359872 1.679692
v -4.668788 -0.504067 1.705198
v -4.681899 -0.654025 1.713810
v -4.668788 -0.803983 1.705198
v -4.629962 -0.948178 1.679692
v -4.566911 -1.081069 1.638272
v -4.482058 -1.197549 1.582530
v -4.378664 -1.293142 1.514609
v -4.260703 -1.364174 1.437118
v -4.132708 -1.407915 1.353035
v -4.148023 0.099865 1.326642
v -4.290744 0.056124 1.385346
v -4.422276 -0.014908 1.439447
v -4.537566 -0.110501 1.486868
v -4.632181 -0.226981 1.525785
v -4.702487 -0.359872 1.554703
v -4.745781 -0.504067 1.572511
v -4.760399 -0.654025 1.578523
v -4.745781 -0.803983 1.572511
v -4.702487 -0.948178 1.554703
v -4.632181 -1.081069 1.525785
v -4.537566 -1.197549 1.486868
v -4.422276 -1.293142 1.439448
v -4.290743 -1.364174 1.385346
v -4.148023 -1.407915 1.326642
v -4.157633 0.099865 1.297903
v -4.309596 0.056124 1.328972
v -4.449646 -0.014908 1.357605
v -4.572400 -0.110501 1.382702
v -4.673141 -0.226981 1.403299
v -4.748000 -0.359872 1.418604
v -4.794097 -0.504067 1.428029
v -4.809662 -0.654025 1.431211
v -4.794097 -0.803983 1.428029
v -4.748000 -0.948178 1.418604
v -4.673141 -1.081069 1.403299
v -4.572400 -1.197549 1.382702
v -4.449646 -1.293142 1.357605
v -4.309596 -1.364174 1.328972
v -4.157633 -1.407915 1.297903
v -4.161171 0.099865 1.267922
v -4.316535 0.056124 1.270162
v -4.459720 -0.014908 1.272227
v -4.585221 -0.110501 1.274036
v -4.688219 -0.226981 1.275521
v -4.764752 -0.359872 1.276625
v -4.811882 -0.504067 1.277304
v -4.827795 -0.654025 1.277534
v -4.811882 -0.803983 1.277304
v -4.764752 -0.948178 1.276625
v -4.688219 -1.081069 1.275521
v -4.585221 -1.197549 1.274036
v -4.459720 -1.293142 1.272227
v -4.316535 -1.364174 1.270162
v -4.161171 -1.407915 1.267922
v -4.158499 0.099865 1.237851
v -4.311295 0.056124 1.211177
v -4.452111 -0.014908 1.186593
v -4.575538 -0.110501 1.165045
v -4.676832 -0.226981 1.147362
v -4.752100 -0.359872 1.134222
v -4.798450 -0.504067 1.126130
v -4.814101 -0.654025 1.123398
v -4.798450 -0.803983 1.126130
v -4.752100 -0.948178 1.134222
v -4.676832 -1.081069 1.147362
v -4.575538 -1.197549 1.165046
v -4.452111 -1.293142 1.186593
v -4.311295 -1.364174 1.211177
v -4.158499 -1.407915 1.237852
v -4.149721 0.099865 1.208847
v -4.294075 0.056124 1.154283
v -4.427113 -0.014908 1.103996
v -4.543722 -0.110501 1.059919
v -4.639420 -0.226981 1.023746
v -4.710530 -0.359872 0.996867
v -4.754319 -0.504067 0.980315
v -4.769105 -0.654025 0.974726
v -4.754319 -0.803983 0.980315
v -4.710530 -0.948178 0.996867
v -4.639420 -1.081069 1.023746
v -4.543722 -1.197549 1.059919
v -4.427113 -1.293142 1.103996
v -4.294075 -1.364174 1.154283
v -4.149721 -1.407915 1.208847
v -4.135174 0.099865 1.182023
v -4.265540 0.056124 1.101666
v -4.385686 -0.014908 1.027608
v -4.490994 -0.110501 0.962696
v -4.577420 -0.226981 0.909424
v -4.641639 -0.359872 0.869840
v -4.681185 -0.504067 0.845463
v -4.694538 -0.654025 0.837232
v -4.681185 -0.803983 0.845463
v -4.641639 -0.948178 0.869839
v -4.577420 -1.081069 0.909424
v -4.490994 -1.197549 0.962696
v -4.385686 -1.293142 1.027608
v -4.265540 -1.364174 1.101666
v -4.135173 -1.407915 1.182023
v -4.115416 0.099865 1.158411
v -4.226784 0.056124 1.055349
v -4.329421 -0.014908 0.960366
v -4.419384 -0.110501 0.877114
v -4.493214 -0.226981 0.808789
v -4.548074 -0.359872 0.758020
v -4.581857 -0.504067 0.726757
v -4.593265 -0.654025 0.716201
v -4.581858 -0.803983 0.726757
v -4.548075 -0.948178 0.758020
v -4.493214 -1.081069 0.808789
v -4.419384 -1.197549 0.877114
v -4.329421 -1.293142 0.960367
v -4.226784 -1.364174 1.055349
v -4.115416 -1.407915 1.158411
v -4.091208 0.099865 1.138918
v -4.179298 0.056124 1.017111
v -4.260482 -0.014908 0.904854
v -4.331640 -0.110501 0.806460
v -4.390039 -0.226981 0.725710
v -4.433433 -0.359872 0.665707
v -4.460154 -0.504067 0.628757
v -4.469177 -0.654025 0.616281
v -4.460154 -0.803983 0.628757
v -4.433433 -0.948178 0.665707
v -4.390039 -1.081069 0.725710
v -4.331640 -1.197550 0.806460
v -4.260482 -1.293142 0.904854
v -4.179298 -1.364174 1.017112
v -4.091208 -1.407915 1.138918
v -3.999598 -1.422684 1.265592
v -4.063479 0.099865 1.124293
v -4.124906 0.056124 0.988423
v -4.181517 -0.014908 0.863205
v -4.231137 -0.110501 0.753451
v -4.271859 -0.226981 0.663377
v -4.302119 -0.359872 0.596447
v -4.320752 -0.504067 0.555231
v -4.327044 -0.654025 0.541315
v -4.320752 -0.803983 0.555231
v -4.302119 -0.948178 0.596447
v -4.271859 -1.081069 0.663377
v -4.231137 -1.197550 0.753451
v -4.181517 -1.293142 0.863205
v -4.124906 -1.364174 0.988423
v -4.063479 -1.407915 1.124293
v -4.033296 0.099865 1.115097
v -4.065698 0.056124 0.970386
v -4.095561 -0.014908 0.837019
v -4.121736 -0.110501 0.720122
v -4.143217 -0.226981 0.624188
v -4.159179 -0.359872 0.552902
v -4.169008 -0.504067 0.509004
v -4.172327 -0.654025 0.494181
v -4.169008 -0.803983 0.509004
v -4.159179 -0.948178 0.552902
v -4.143217 -1.081069 0.624188
v -4.121736 -1.197550 0.720122
v -4.095561 -1.293142 0.837020
v -4.065698 -1.364174 0.970386
v -4.033296 -1.407915 1.115098
v -4.001817 0.099865 1.111686
v -4.003950 0.056124 0.963693
v -4.005917 -0.014908 0.827303
v -4.007641 -0.110501 0.707757
v -4.009055 -0.226981 0.609647
v -4.010107 -0.359872 0.536745
v -4.010754 -0.504067 0.491852
v -4.010972 -0.654025 0.476693
v -4.010754 -0.803983 0.491852
v -4.010107 -0.948178 0.536745
v -4.009055 -1.081069 0.609647
v -4.007641 -1.197550 0.707757
v -4.005917 -1.293142 0.827303
v -4.003950 -1.364174 0.963694
v -4.001817 -1.407915 1.111686
v -3.970252 0.099865 1.114188
v -3.942035 0.056124 0.968603
v -3.916030 -0.014908 0.834431
v -3.893236 -0.110501 0.716828
v -3.874530 -0.226981 0.620313
v -3.860631 -0.359872 0.548597
v -3.852071 -0.504067 0.504434
v -3.849180 -0.654025 0.489522
v -3.852071 -0.803983 0.504434
v -3.860631 -0.948178 0.548597
v -3.874530 -1.081069 0.620313
v -3.893236 -1.197550 0.716828
v -3.916030 -1.293142 0.834431
v -3.942035 -1.364174 0.968603
v -3.970253 -1.407915 1.114189
v -3.939816 0.099865 1.122509
v -3.882332 0.056124 0.984926
v -3.829355 -0.014908 0.858127
v -3.782920 -0.110501 0.746988
v -3.744811 -0.226981 0.655778
v -3.716495 -0.359872 0.588003
v -3.699057 -0.504067 0.546267
v -3.693169 -0.654025 0.532175
v -3.699057 -0.803983 0.546267
v -3.716494 -0.948178 0.588003
v -3.744811 -1.081069 0.655778
v -3.782920 -1.197550 0.746988
v -3.829355 -1.293142 0.858128
v -3.882332 -1.364174 0.984926
v -3.939816 -1.407915 1.122510
v -3.911677 0.099865 1.136329
v -3.827136 0.056124 1.012034
v -3.749222 -0.014908 0.897483
v -3.680930 -0.110501 0.797078
v -3.624884 -0.226981 0.714677
v -3.583238 -0.359872 0.653449
v -3.557593 -0.504067 0.615744
v -3.548934 -0.654025 0.603013
v -3.557593 -0.803983 0.615744
v -3.583238 -0.948178 0.653448
v -3.624884 -1.081069 0.714677
v -3.680930 -1.197550 0.797078
v -3.749222 -1.293142 0.897483
v -3.827136 -1.364174 1.012034
v -3.911677 -1.407915 1.136329
v -3.886917 0.099865 1.155116
v -3.778567 0.056124 1.048886
v -3.678711 -0.014908 0.950984
v -3.591186 -0.110501 0.865172
v -3.519356 -0.226981 0.794748
v -3.465982 -0.359872 0.742418
v -3.433115 -0.504067 0.710193
v -3.422017 -0.654025 0.699313
v -3.433115 -0.803983 0.710193
v -3.465982 -0.948178 0.742418
v -3.519356 -1.081069 0.794748
v -3.591186 -1.197550 0.865172
v -3.678711 -1.293142 0.950984
v -3.778567 -1.364174 1.048887
v -3.886917 -1.407915 1.155117
v -3.866487 0.099865 1.178149
v -3.738492 0.056124 1.094067
v -3.620531 -0.014908 1.016576
v -3.517137 -0.110501 0.948654
v -3.432284 -0.226981 0.892913
v -3.369233 -0.359872 0.851493
v -3.330406 -0.504067 0.825987
v -3.317296 -0.654025 0.817375
v -3.330406 -0.803983 0.825987
v -3.369233 -0.948178 0.851493
v -3.432284 -1.081069 0.892913
v -3.517137 -1.197549 0.948654
v -3.620531 -1.293142 1.016576
v -3.738492 -1.364174 1.094067
v -3.866487 -1.407915 1.178149
v -3.999597 0.114635 1.265592
v -3.851172 0.099865 1.204542
v -3.708451 0.056124 1.145838
v -3.576918 -0.014908 1.091737
v -3.461629 -0.110501 1.044317
v -3.367014 -0.226981 1.005400
v -3.296708 -0.359872 0.976481
v -3.253414 -0.504067 0.958674
v -3.238796 -0.654025 0.952661
v -3.253414 -0.803983 0.958674
v -3.296708 -0.948178 0.976482
v -3.367014 -1.081069 1.005400
v -3.461629 -1.197549 1.044317
v -3.576918 -1.293142 1.091737
v -3.708451 -1.364174 1.145839
v -3.851172 -1.407915 1.204542
v -3.841561 0.099865 1.233281
v -3.689599 0.056124 1.202213
v -3.549549 -0.014908 1.173579
v -3.426795 -0.110501 1.148482
v -3.326053 -0.226981 1.127886
v -3.251195 -0.359872 1.112580
v -3.205098 -0.504067 1.103156
v -3.189533 -0.654025 1.099974
v -3.205098 -0.803983 1.103156
v -3.251195 -0.948178 1.112581
v -3.326053 -1.081069 1.127886
v -3.426795 -1.197549 1.148482
v -3.549549 -1.293142 1.173580
v -3.689599 -1.364174 1.202213
v -3.841562 -1.407915 1.233282
vn 0.1875 0.9823 -0.0027
vn -0.0000 1.0000 -0.0000
vn 0.1844 0.9822 0.0358
vn 0.9144 0.4046 -0.0132
vn 0.8141 0.5806 -0.0117
vn 0.7998 0.5799 0.1549
vn 0.8981 0.4040 0.1738
vn 0.6841 -0.7293 -0.0099
vn 0.8141 -0.5806 -0.0117
vn 0.7998 -0.5799 0.1549
vn 0.6723 -0.7287 0.1303
vn 0.9144 -0.4046 -0.0132
vn 0.8981 -0.4040 0.1738
vn 0.6841 0.7293 -0.0099
vn 0.6723 0.7287 0.1303
vn 0.9781 -0.2079 -0.0141
vn 0.9604 -0.2075 0.1858
vn -0.0000 -1.0000 -0.0000
vn 0.1875 -0.9823 -0.0027
vn 0.1844 -0.9822 0.0358
vn 0.3645 -0.9312 -0.0053
vn 0.3584 -0.9310 0.0695
vn 0.5319 0.8468 -0.0077
vn 0.5230 0.8463 0.1014
vn 0.3645 0.9312 -0.0053
vn 0.3584 0.9310 0.0695
vn 0.9999 -0.0000 -0.0144
vn 0.9818 -0.0000 0.1900
vn 0.5319 -0.8468 -0.0077
vn 0.5230 -0.8463 0.1014
vn 0.9781 0.2079 -0.0141
vn 0.9604 0.2075 0.1858
vn 0.9030 0.2065 0.3767
vn 0.9229 -0.0000 0.3850
vn 0.8449 0.4022 0.3526
vn 0.6337 -0.7269 0.2647
vn 0.4933 -0.8450 0.2062
vn 0.1741 0.9820 0.0730
vn 0.7531 0.5779 0.3144
vn 0.7531 -0.5779 0.3144
vn 0.8449 -0.4022 0.3526
vn 0.6337 0.7269 0.2647
vn 0.9030 -0.2065 0.3767
vn 0.1741 -0.9820 0.0730
vn 0.3383 -0.9303 0.1415
vn 0.4933 0.8450 0.2062
vn 0.3383 0.9303 0.1415
vn 0.4445 -0.8432 0.3024
vn 0.3052 -0.9294 0.2078
vn 0.3052 0.9294 0.2078
vn 0.4445 0.8432 0.3024
vn 0.1571 0.9818 0.1071
vn 0.8097 0.2050 0.5499
vn 0.8273 -0.0000 0.5618
vn 0.5702 -0.7242 0.3877
vn 0.7583 0.3996 0.5151
vn 0.6767 0.5749 0.4599
vn 0.6767 -0.5749 0.4599
vn 0.5702 0.7242 0.3877
vn 0.7583 -0.3996 0.5151
vn 0.8097 -0.2050 0.5499
vn 0.1571 -0.9818 0.1071
vn 0.3788 0.8410 0.3864
vn 0.4851 0.7211 0.4946
vn 0.6860 -0.2032 0.6987
vn 0.6431 -0.3966 0.6551
vn 0.7006 -0.0000 0.7135
vn 0.2603 -0.9282 0.2658
vn 0.1341 -0.9814 0.1371
vn 0.2603 0.9282 0.2658
vn 0.6860 0.2032 0.6987
vn 0.3788 -0.8410 0.3864
vn 0.4851 -0.7211 0.4946
vn 0.1341 0.9814 0.1371
vn 0.6431 0.3966 0.6551
vn 0.5748 -0.5715 0.5857
vn 0.5748 0.5715 0.5857
vn 0.5052 -0.3936 0.7680
vn 0.4521 -0.5681 0.6877
vn 0.1059 -0.9811 0.1617
vn 0.3822 0.7181 0.5816
vn 0.4521 0.5681 0.6877
vn 0.2989 0.8388 0.4551
vn 0.5383 -0.2015 0.8183
vn 0.2057 -0.9271 0.3134
vn 0.2057 0.9271 0.3134
vn 0.5496 -0.0000 0.8354
vn 0.5383 0.2015 0.8183
vn 0.2989 -0.8388 0.4551
vn 0.1059 0.9811 0.1617
vn 0.5052 0.3936 0.7680
vn 0.3822 -0.7181 0.5816
vn 0.0739 0.9809 0.1801
vn 0.3140 0.5652 0.7628
vn 0.3504 0.3912 0.8510
vn 0.3140 -0.5652 0.7628
vn 0.2658 -0.7155 0.6461
vn 0.3504 -0.3912 0.8510
vn 0.2658 0.7155 0.6461
vn 0.3732 -0.2001 0.9059
vn 0.0739 -0.9809 0.1801
vn 0.1434 -0.9261 0.3489
vn 0.2082 0.8370 0.5061
vn 0.1434 0.9261 0.3489
vn 0.3809 -0.0000 0.9246
vn 0.2082 -0.8370 0.5061
vn 0.3731 0.2001 0.9059
vn 0.1403 -0.7138 0.6862
vn 0.1100 -0.8357 0.5380
vn 0.0391 0.9807 0.1916
vn 0.1847 0.3895 0.9023
vn 0.1965 0.1991 0.9601
vn 0.1656 0.5633 0.8095
vn 0.1656 -0.5633 0.8095
vn 0.1403 0.7138 0.6862
vn 0.1847 -0.3895 0.9023
vn 0.1965 -0.1991 0.9601
vn 0.0391 -0.9807 0.1916
vn 0.1100 0.8357 0.5380
vn 0.2006 -0.0000 0.9797
vn 0.0758 -0.9255 0.3711
vn 0.0758 0.9255 0.3711
vn 0.0055 0.9253 0.3792
vn 0.0079 0.8353 0.5497
vn 0.0141 0.1988 0.9799
vn 0.0144 -0.0000 0.9999
vn 0.0079 -0.8353 0.5497
vn 0.0055 -0.9253 0.3792
vn 0.0101 -0.7132 0.7009
vn 0.0028 0.9806 0.1958
vn 0.0133 0.3890 0.9212
vn 0.0119 -0.5627 0.8266
vn 0.0119 0.5627 0.8266
vn 0.0101 0.7132 0.7009
vn 0.0133 -0.3890 0.9212
vn 0.0028 -0.9806 0.1958
vn 0.0141 -0.1988 0.9799
vn -0.0944 0.8357 0.5409
vn -0.1205 0.7138 0.6899
vn -0.1688 -0.1991 0.9653
vn -0.1586 -0.3895 0.9073
vn -0.0651 -0.9255 0.3731
vn -0.0335 -0.9807 0.1926
vn -0.0651 0.9255 0.3731
vn -0.1722 -0.0000 0.9851
vn -0.1688 0.1991 0.9653
vn -0.0944 -0.8357 0.5409
vn -0.0335 0.9807 0.1926
vn -0.1586 0.3895 0.9073
vn -0.1205 -0.7138 0.6899
vn -0.1422 -0.5633 0.8139
vn -0.1422 0.5633 0.8139
vn -0.2471 0.7155 0.6535
vn -0.2919 0.5652 0.7716
vn -0.3469 -0.2001 0.9163
vn -0.3258 -0.3912 0.8607
vn -0.0687 -0.9809 0.1821
vn -0.1332 -0.9261 0.3529
vn -0.1935 0.8370 0.5119
vn -0.1332 0.9261 0.3529
vn -0.3541 -0.0000 0.9352
vn -0.1935 -0.8370 0.5119
vn -0.0687 0.9809 0.1821
vn -0.3469 0.2001 0.9163
vn -0.3258 0.3912 0.8607
vn -0.2471 -0.7155 0.6535
vn -0.2919 -0.5652 0.7716
vn -0.4828 0.3936 0.7823
vn -0.5145 0.2015 0.8335
vn -0.4321 0.5681 0.7004
vn -0.4321 -0.5681 0.7004
vn -0.3653 -0.7181 0.5924
vn -0.3653 0.7181 0.5924
vn -0.4828 -0.3936 0.7823
vn -0.5145 -0.2015 0.8335
vn -0.1012 -0.9811 0.1647
vn -0.2857 0.8388 0.4635
vn -0.5253 -0.0000 0.8509
vn -0.1965 -0.9271 0.3192
vn -0.2857 -0.8388 0.4635
vn -0.1965 0.9271 0.3192
vn -0.1012 0.9811 0.1647
vn -0.4707 -0.7211 0.5084
vn -0.3675 -0.8410 0.3972
vn -0.1300 0.9814 0.1409
vn -0.2526 0.9282 0.2732
vn -0.6239 0.3966 0.6734
vn -0.6656 0.2032 0.7181
vn -0.5576 -0.5715 0.6021
vn -0.5576 0.5715 0.6021
vn -0.4707 0.7211 0.5084
vn -0.6239 -0.3966 0.6734
vn -0.1300 -0.9814 0.1409
vn -0.3675 0.8410 0.3972
vn -0.6656 -0.2032 0.7181
vn -0.6798 -0.0000 0.7334
vn -0.2526 -0.9282 0.2732
vn -0.2991 0.9294 0.2165
vn -0.4356 0.8432 0.3151
vn -0.8107 -0.0000 0.5854
vn -0.7935 -0.2050 0.5730
vn -0.7935 0.2050 0.5730
vn -0.4356 -0.8432 0.3151
vn -0.2991 -0.9294 0.2165
vn -0.1539 0.9818 0.1116
vn -0.7431 0.3996 0.5368
vn -0.5588 -0.7242 0.4040
vn -0.6632 -0.5749 0.4792
vn -0.6632 0.5749 0.4792
vn -0.7431 -0.3996 0.5368
vn -0.1539 -0.9818 0.1116
vn -0.5588 0.7242 0.4040
vn -0.8918 -0.2065 0.4026
vn -0.8344 -0.4022 0.3768
vn -0.1720 -0.9820 0.0779
vn -0.3341 -0.9303 0.1512
vn -0.4872 0.8450 0.2203
vn -0.6258 0.7269 0.2828
vn -0.3341 0.9303 0.1512
vn -0.9114 -0.0000 0.4114
vn -0.4872 -0.8450 0.2203
vn -0.1720 0.9820 0.0779
vn -0.8918 0.2065 0.4026
vn -0.8344 0.4022 0.3768
vn -0.6258 -0.7269 0.2828
vn -0.7437 0.5779 0.3360
vn -0.7437 -0.5779 0.3360
vn -0.6683 0.7287 0.1496
vn -0.7950 0.5799 0.1779
vn -0.8927 -0.4040 0.1997
vn -0.7950 -0.5799 0.1779
vn -0.9547 -0.2075 0.2135
vn -0.1833 -0.9822 0.0412
vn -0.5198 0.8463 0.1164
vn -0.9759 -0.0000 0.2182
vn -0.3563 -0.9310 0.0798
vn -0.5198 -0.8463 0.1164
vn -0.3563 0.9310 0.0798
vn -0.1833 0.9822 0.0411
vn -0.9547 0.2075 0.2135
vn -0.6683 -0.7287 0.1496
vn -0.8927 0.4040 0.1997
vn -0.8141 -0.5806 0.0117
vn -0.6841 -0.7293 0.0099
vn -0.8141 0.5806 0.0117
vn -0.9144 0.4046 0.0132
vn -0.6841 0.7293 0.0099
vn -0.9144 -0.4046 0.0132
vn -0.1875 -0.9823 0.0027
vn -0.5319 0.8468 0.0077
vn -0.9781 -0.2079 0.0141
vn -0.9999 -0.0000 0.0144
vn -0.3645 -0.9312 0.0053
vn -0.3645 0.9312 0.0053
vn -0.9781 0.2079 0.0141
vn -0.5319 -0.8468 0.0077
vn -0.1875 0.9823 0.0027
vn -0.1844 0.9822 -0.0358
vn -0.3584 0.9310 -0.0695
vn -0.8981 0.4040 -0.1738
vn -0.9604 0.2075 -0.1858
vn -0.6723 -0.7287 -0.1303
vn -0.5230 -0.8463 -0.1014
vn -0.7998 -0.5799 -0.1549
vn -0.7998 0.5799 -0.1549
vn -0.8981 -0.4040 -0.1738
vn -0.1844 -0.9822 -0.0358
vn -0.6723 0.7287 -0.1303
vn -0.5230 0.8463 -0.1014
vn -0.9604 -0.2075 -0.1858
vn -0.3584 -0.9310 -0.0695
vn -0.9818 -0.0000 -0.1900
vn -0.3383 0.9303 -0.1415
vn -0.4933 0.8450 -0.2062
vn -0.9229 -0.0000 -0.3850
vn -0.9030 -0.2065 -0.3767
vn -0.4933 -0.8450 -0.2062
vn -0.3383 -0.9303 -0.1415
vn -0.1741 0.9820 -0.0730
vn -0.9030 0.2065 -0.3767
vn -0.8449 0.4022 -0.3526
vn -0.6337 -0.7269 -0.2647
vn -0.7531 0.5779 -0.3144
vn -0.7531 -0.5779 -0.3144
vn -0.8449 -0.4022 -0.3526
vn -0.6337 0.7269 -0.2647
vn -0.1741 -0.9820 -0.0730
vn -0.1571 -0.9818 -0.1071
vn -0.4445 0.8432 -0.3024
vn -0.5702 0.7242 -0.3877
vn -0.8273 -0.0000 -0.5618
vn -0.8097 -0.2050 -0.5499
vn -0.3052 -0.9294 -0.2078
vn -0.4445 -0.8432 -0.3024
vn -0.3052 0.9294 -0.2078
vn -0.1571 0.9818 -0.1071
vn -0.8097 0.2050 -0.5499
vn -0.5702 -0.7242 -0.3877
vn -0.7583 0.3996 -0.5151
vn -0.6767 0.5749 -0.4599
vn -0.6767 -0.5749 -0.4599
vn -0.7583 -0.3996 -0.5151
vn -0.5748 0.5715 -0.5857
vn -0.6431 0.3966 -0.6551
vn -0.4851 0.7211 -0.4946
vn -0.6431 -0.3966 -0.6551
vn -0.5748 -0.5715 -0.5857
vn -0.1341 -0.9814 -0.1371
vn -0.3788 0.8410 -0.3864
vn -0.6860 -0.2032 -0.6987
vn -0.7006 -0.0000 -0.7135
vn -0.2603 -0.9282 -0.2658
vn -0.2603 0.9282 -0.2658
vn -0.6860 0.2032 -0.6987
vn -0.3788 -0.8410 -0.3864
vn -0.4851 -0.7211 -0.4946
vn -0.1341 0.9814 -0.1371
vn -0.4521 -0.5681 -0.6877
vn -0.3822 -0.7181 -0.5816
vn -0.1059 0.9811 -0.1617
vn -0.4521 0.5681 -0.6877
vn -0.5052 0.3936 -0.7680
vn -0.5052 -0.3936 -0.7680
vn -0.1059 -0.9811 -0.1617
vn -0.3822 0.7181 -0.5816
vn -0.2989 0.8388 -0.4551
vn -0.5383 -0.2015 -0.8183
vn -0.2057 -0.9271 -0.3134
vn -0.2057 0.9271 -0.3134
vn -0.5496 -0.0000 -0.8354
vn -0.5383 0.2015 -0.8183
vn -0.2989 -0.8388 -0.4551
vn -0.0739 0.9809 -0.1801
vn -0.1434 0.9261 -0.3489
vn -0.3731 0.2000 -0.9059
vn -0.3809 -0.0000 -0.9246
vn -0.3504 0.3912 -0.8510
vn -0.2658 -0.7155 -0.6461
vn -0.2082 -0.8370 -0.5061
vn -0.3140 0.5652 -0.7628
vn -0.3140 -0.5652 -0.7628
vn -0.3504 -0.3912 -0.8510
vn -0.2658 0.7155 -0.6461
vn -0.3732 -0.2000 -0.9059
vn -0.0739 -0.9809 -0.1801
vn -0.1434 -0.9261 -0.3489
vn -0.2082 0.8370 -0.5061
vn -0.2006 -0.0000 -0.9797
vn -0.1965 -0.1991 -0.9601
vn -0.0758 -0.9255 -0.3711
vn -0.0391 -0.9807 -0.1916
vn -0.1100 -0.8357 -0.5380
vn -0.0758 0.9255 -0.3711
vn -0.1100 0.8357 -0.5380
vn -0.0391 0.9807 -0.1916
vn -0.1965 0.1991 -0.9601
vn -0.1403 -0.7138 -0.6862
vn -0.1847 0.3895 -0.9023
vn -0.1656 0.5633 -0.8095
vn -0.1656 -0.5633 -0.8095
vn -0.1403 0.7138 -0.6862
vn -0.1847 -0.3895 -0.9023
vn -0.0079 0.8353 -0.5497
vn -0.0101 0.7132 -0.7009
vn -0.0141 -0.1988 -0.9799
vn -0.0133 -0.3890 -0.9212
vn -0.0144 -0.0000 -0.9999
vn -0.0055 -0.9253 -0.3792
vn -0.0028 -0.9806 -0.1958
vn -0.0055 0.9253 -0.3792
vn -0.0141 0.1988 -0.9799
vn -0.0079 -0.8353 -0.5497
vn -0.0101 -0.7132 -0.7009
vn -0.0028 0.9806 -0.1958
vn -0.0133 0.3890 -0.9212
vn -0.0119 -0.5627 -0.8266
vn -0.0119 0.5627 -0.8266
vn 0.1586 -0.3895 -0.9073
vn 0.1422 -0.5633 -0.8139
vn 0.0335 -0.9807 -0.1926
vn 0.1205 0.7138 -0.6899
vn 0.1422 0.5633 -0.8139
vn 0.0944 0.8357 -0.5409
vn 0.1688 -0.1991 -0.9653
vn 0.0651 -0.9255 -0.3731
vn 0.0651 0.9255 -0.3731
vn 0.1722 -0.0000 -0.9851
vn 0.1688 0.1991 -0.9653
vn 0.0944 -0.8357 -0.5409
vn 0.0335 0.9807 -0.1926
vn 0.1586 0.3895 -0.9073
vn 0.1205 -0.7138 -0.6899
vn 0.0687 0.9809 -0.1821
vn 0.2919 0.5652 -0.7716
vn 0.3258 0.3912 -0.8607
vn 0.2919 -0.5652 -0.7716
vn 0.2471 -0.7155 -0.6535
vn 0.3258 -0.3912 -0.8607
vn 0.2471 0.7155 -0.6535
vn 0.3469 -0.2000 -0.9163
vn 0.0687 -0.9809 -0.1821
vn 0.1332 -0.9261 -0.3529
vn 0.1935 0.8370 -0.5119
vn 0.1332 0.9261 -0.3529
vn 0.3541 -0.0000 -0.9352
vn 0.1935 -0.8370 -0.5119
vn 0.3469 0.2000 -0.9163
vn 0.1012 0.9811 -0.1647
vn 0.1965 0.9271 -0.3192
vn 0.5145 0.2015 -0.8335
vn 0.5253 -0.0000 -0.8509
vn 0.3653 -0.7181 -0.5924
vn 0.2857 -0.8388 -0.4635
vn 0.4828 0.3936 -0.7823
vn 0.4321 0.5681 -0.7004
vn 0.4321 -0.5681 -0.7004
vn 0.3653 0.7181 -0.5924
vn 0.4828 -0.3936 -0.7823
vn 0.5145 -0.2015 -0.8335
vn 0.1012 -0.9811 -0.1647
vn 0.2857 0.8388 -0.4635
vn 0.1965 -0.9271 -0.3192
vn 0.2526 -0.9282 -0.2732
vn 0.1300 -0.9814 -0.1409
vn 0.2526 0.9282 -0.2732
vn 0.3675 0.8410 -0.3972
vn 0.6656 0.2032 -0.7181
vn 0.6798 -0.0000 -0.7334
vn 0.3675 -0.8410 -0.3972
vn 0.4707 -0.7211 -0.5084
vn 0.1301 0.9814 -0.1409
vn 0.6239 0.3966 -0.6734
vn 0.5576 -0.5715 -0.6021
vn 0.5576 0.5715 -0.6021
vn 0.4707 0.7211 -0.5084
vn 0.6239 -0.3966 -0.6734
vn 0.6656 -0.2032 -0.7181
vn 0.5588 0.7242 -0.4040
vn 0.6632 0.5749 -0.4792
vn 0.4356 0.8432 -0.3151
vn 0.7935 -0.2050 -0.5730
vn 0.7431 -0.3996 -0.5368
vn 0.2991 -0.9294 -0.2165
vn 0.1539 -0.9818 -0.1116
vn 0.2991 0.9294 -0.2165
vn 0.8107 -0.0000 -0.5854
vn 0.7935 0.2050 -0.5730
vn 0.4356 -0.8432 -0.3151
vn 0.1539 0.9818 -0.1116
vn 0.7431 0.3996 -0.5368
vn 0.5588 -0.7242 -0.4040
vn 0.6632 -0.5749 -0.4792
vn 0.8344 -0.4022 -0.3768
vn 0.7437 -0.5779 -0.3360
vn 0.6258 0.7269 -0.2828
vn 0.7437 0.5779 -0.3360
vn 0.8918 -0.2065 -0.4026
vn 0.1720 -0.9820 -0.0779
vn 0.3341 -0.9303 -0.1512
vn 0.4872 0.8450 -0.2203
vn 0.3341 0.9303 -0.1512
vn 0.9114 -0.0000 -0.4114
vn 0.4872 -0.8450 -0.2203
vn 0.1720 0.9820 -0.0779
vn 0.8918 0.2065 -0.4026
vn 0.8344 0.4022 -0.3768
vn 0.6258 -0.7269 -0.2828
vn 0.1833 0.9822 -0.0412
vn 0.8927 0.4040 -0.1997
vn 0.9547 0.2075 -0.2135
vn 0.7950 0.5799 -0.1779
vn 0.7950 -0.5799 -0.1779
vn 0.6683 -0.7287 -0.1496
vn 0.6683 0.7287 -0.1496
vn 0.8927 -0.4040 -0.1997
vn 0.9547 -0.2075 -0.2135
vn 0.1833 -0.9822 -0.0412
vn 0.5198 0.8463 -0.1164
vn 0.9759 -0.0000 -0.2182
vn 0.3563 -0.9310 -0.0798
vn 0.5198 -0.8463 -0.1164
vn 0.3563 0.9310 -0.0798
vt 0.260400 0.458000
vt 0.258200 0.499900
vt 0.252800 0.458200
vt 0.264400 0.301400
vt 0.264000 0.328200
vt 0.241100 0.328600
vt 0.240100 0.301600
vt 0.267200 0.143700
vt 0.266600 0.172000
vt 0.243600 0.170900
vt 0.246400 0.142300
vt 0.266100 0.198900
vt 0.241700 0.198000
vt 0.263500 0.356500
vt 0.242700 0.357000
vt 0.265600 0.224700
vt 0.240400 0.224100
vt 0.273100 0.000100
vt 0.270600 0.042200
vt 0.263000 0.041100
vt 0.268900 0.079700
vt 0.255500 0.078200
vt 0.262800 0.387100
vt 0.245100 0.387600
vt 0.261900 0.420500
vt 0.248500 0.421000
vt 0.265200 0.250100
vt 0.239800 0.249800
vt 0.267900 0.113200
vt 0.250200 0.111700
vt 0.264800 0.275500
vt 0.239600 0.275500
vt 0.213900 0.276000
vt 0.213800 0.249500
vt 0.215300 0.302900
vt 0.225400 0.139100
vt 0.232500 0.108100
vt 0.245300 0.459700
vt 0.217900 0.330500
vt 0.220300 0.168200
vt 0.216800 0.196000
vt 0.221800 0.359400
vt 0.214700 0.223000
vt 0.255700 0.038800
vt 0.242300 0.074800
vt 0.227500 0.390100
vt 0.235200 0.423300
vt 0.214700 0.102300
vt 0.229300 0.069400
vt 0.222100 0.427600
vt 0.209800 0.394900
vt 0.238100 0.462500
vt 0.187200 0.277200
vt 0.186600 0.249300
vt 0.203900 0.133700
vt 0.189600 0.305400
vt 0.194000 0.334100
vt 0.196200 0.163800
vt 0.200600 0.363800
vt 0.191000 0.192900
vt 0.187800 0.221300
vt 0.248700 0.035200
vt 0.192100 0.402000
vt 0.178800 0.370600
vt 0.159200 0.218900
vt 0.163500 0.188400
vt 0.157600 0.249100
vt 0.216800 0.062000
vt 0.242300 0.030400
vt 0.209400 0.434000
vt 0.158700 0.279200
vt 0.196900 0.094100
vt 0.181900 0.126000
vt 0.231400 0.466600
vt 0.162500 0.309400
vt 0.170900 0.157500
vt 0.169100 0.339800
vt 0.133800 0.182200
vt 0.144000 0.148600
vt 0.236700 0.024400
vt 0.156500 0.380200
vt 0.142800 0.347900
vt 0.174500 0.411800
vt 0.127900 0.215700
vt 0.205000 0.052200
vt 0.197400 0.442500
vt 0.125900 0.249100
vt 0.127700 0.282300
vt 0.179200 0.082900
vt 0.225400 0.471900
vt 0.133300 0.315300
vt 0.159000 0.115400
vt 0.220300 0.478300
vt 0.114800 0.359300
vt 0.101400 0.323700
vt 0.114900 0.136500
vt 0.135100 0.101100
vt 0.100900 0.173500
vt 0.133400 0.393200
vt 0.092800 0.211300
vt 0.232200 0.017200
vt 0.194400 0.040000
vt 0.157300 0.424800
vt 0.186400 0.453300
vt 0.090300 0.249300
vt 0.161700 0.068400
vt 0.093200 0.286900
vt 0.110400 0.082000
vt 0.145000 0.049800
vt 0.216300 0.485700
vt 0.065600 0.335800
vt 0.053700 0.293700
vt 0.084500 0.375200
vt 0.083000 0.119900
vt 0.109800 0.410700
vt 0.063700 0.161600
vt 0.052400 0.205400
vt 0.228900 0.009100
vt 0.140900 0.441500
vt 0.049200 0.249800
vt 0.185300 0.025200
vt 0.176900 0.466600
vt 0.169500 0.482400
vt 0.126100 0.462500
vt 0.007200 0.303700
vt 0.000100 0.250900
vt 0.129800 0.026200
vt 0.178700 0.007700
vt 0.084900 0.056500
vt 0.213800 0.494100
vt 0.024800 0.353100
vt 0.047600 0.096900
vt 0.051600 0.397100
vt 0.086100 0.434000
vt 0.020300 0.144800
vt 0.227200 0.000100
vt 0.004400 0.197100
vt 0.444700 0.943600
vt 0.399800 0.973800
vt 0.384700 0.950300
vt 0.419300 0.918200
vt 0.505200 0.647900
vt 0.522600 0.697100
vt 0.476200 0.707000
vt 0.464400 0.665000
vt 0.317200 0.506300
vt 0.361500 0.518300
vt 0.354000 0.533900
vt 0.314700 0.514600
vt 0.351100 0.992300
vt 0.344400 0.974900
vt 0.529500 0.749800
vt 0.480600 0.750800
vt 0.525200 0.803500
vt 0.477300 0.795100
vt 0.404600 0.538300
vt 0.389700 0.559200
vt 0.302600 0.999900
vt 0.300900 0.990900
vt 0.509200 0.855600
vt 0.466000 0.838800
vt 0.444400 0.567000
vt 0.420600 0.590100
vt 0.478600 0.603900
vt 0.445800 0.625700
vt 0.256700 0.999900
vt 0.482000 0.903300
vt 0.446600 0.880400
vt 0.272900 0.500100
vt 0.394600 0.899100
vt 0.414800 0.863800
vt 0.436800 0.713700
vt 0.428700 0.676900
vt 0.310700 0.522000
vt 0.344400 0.547200
vt 0.368000 0.931700
vt 0.335400 0.960100
vt 0.439500 0.751200
vt 0.373300 0.575800
vt 0.297600 0.982800
vt 0.437000 0.789100
vt 0.428800 0.826800
vt 0.397000 0.607400
vt 0.415500 0.641300
vt 0.396000 0.818200
vt 0.402000 0.784700
vt 0.385700 0.851600
vt 0.387400 0.652600
vt 0.373900 0.620400
vt 0.370800 0.884800
vt 0.396800 0.685300
vt 0.402300 0.718200
vt 0.305500 0.528400
vt 0.350600 0.917200
vt 0.404000 0.751300
vt 0.333300 0.557900
vt 0.356000 0.588700
vt 0.324700 0.947900
vt 0.293100 0.975600
vt 0.351500 0.629900
vt 0.338400 0.598500
vt 0.287500 0.969600
vt 0.313000 0.938100
vt 0.366300 0.811800
vt 0.370700 0.781400
vt 0.361100 0.660700
vt 0.358900 0.842700
vt 0.347900 0.874200
vt 0.367600 0.691100
vt 0.299400 0.533600
vt 0.332900 0.906100
vt 0.371300 0.721200
vt 0.372400 0.751200
vt 0.321300 0.566400
vt 0.300500 0.930600
vt 0.315100 0.897800
vt 0.343400 0.751000
vt 0.342900 0.723100
vt 0.342100 0.779000
vt 0.320700 0.605500
vt 0.308600 0.572700
vt 0.281100 0.964800
vt 0.338900 0.807300
vt 0.329800 0.636500
vt 0.336300 0.666200
vt 0.333700 0.836400
vt 0.340500 0.695000
vt 0.292700 0.537600
vt 0.325900 0.866400
vt 0.316100 0.724200
vt 0.314900 0.697400
vt 0.285500 0.540400
vt 0.295500 0.576900
vt 0.297300 0.892000
vt 0.304500 0.861100
vt 0.287600 0.925300
vt 0.316300 0.750700
vt 0.303000 0.610100
vt 0.274200 0.961200
vt 0.315300 0.777200
vt 0.313100 0.804200
vt 0.308500 0.640900
vt 0.309600 0.832000
vt 0.312400 0.669800
vt 0.283500 0.857800
vt 0.286300 0.829300
vt 0.290100 0.698600
vt 0.289200 0.671600
vt 0.290500 0.724700
vt 0.278000 0.541900
vt 0.279600 0.888400
vt 0.290300 0.750400
vt 0.282100 0.579200
vt 0.285300 0.612600
vt 0.274300 0.921900
vt 0.266800 0.958900
vt 0.289500 0.776000
vt 0.287600 0.643200
vt 0.288200 0.802200
vt 0.266300 0.671900
vt 0.266900 0.643600
vt 0.263300 0.828100
vt 0.263900 0.801300
vt 0.262700 0.856400
vt 0.265800 0.698700
vt 0.270400 0.542100
vt 0.262000 0.886900
vt 0.265300 0.724600
vt 0.264800 0.750000
vt 0.268700 0.579600
vt 0.260900 0.920400
vt 0.264400 0.775400
vt 0.267700 0.613100
vt 0.259300 0.957900
vt 0.251700 0.958100
vt 0.247500 0.920800
vt 0.239500 0.801400
vt 0.239200 0.775300
vt 0.246100 0.642200
vt 0.250000 0.611600
vt 0.243400 0.670700
vt 0.240400 0.828400
vt 0.241400 0.697800
vt 0.262800 0.541100
vt 0.242000 0.856800
vt 0.244300 0.887400
vt 0.240100 0.724000
vt 0.255300 0.578100
vt 0.239400 0.749600
vt 0.234200 0.923100
vt 0.226600 0.889900
vt 0.213400 0.749300
vt 0.214300 0.722800
vt 0.232300 0.608000
vt 0.242100 0.574700
vt 0.244200 0.959600
vt 0.213500 0.775800
vt 0.214700 0.802600
vt 0.225200 0.638900
vt 0.217200 0.830200
vt 0.220000 0.668000
vt 0.216500 0.695800
vt 0.221100 0.859100
vt 0.255400 0.538800
vt 0.248500 0.535200
vt 0.208900 0.894500
vt 0.199900 0.863500
vt 0.186200 0.749000
vt 0.187500 0.721000
vt 0.229100 0.569400
vt 0.214500 0.602200
vt 0.221100 0.927300
vt 0.236900 0.962300
vt 0.186700 0.776900
vt 0.203700 0.633600
vt 0.189100 0.805000
vt 0.193400 0.833800
vt 0.196000 0.663600
vt 0.190700 0.692700
vt 0.168500 0.839300
vt 0.162000 0.808900
vt 0.178100 0.870100
vt 0.163300 0.688200
vt 0.170700 0.657200
vt 0.242100 0.530400
vt 0.191200 0.901500
vt 0.158900 0.718600
vt 0.157300 0.748800
vt 0.216600 0.561900
vt 0.208400 0.933600
vt 0.158300 0.778800
vt 0.196700 0.593900
vt 0.181700 0.625800
vt 0.230200 0.966400
vt 0.143900 0.648400
vt 0.158800 0.615200
vt 0.224100 0.971600
vt 0.142200 0.847400
vt 0.132900 0.814700
vt 0.133600 0.681800
vt 0.236500 0.524400
vt 0.155700 0.879600
vt 0.173600 0.911300
vt 0.127600 0.715300
vt 0.204900 0.552100
vt 0.196300 0.942100
vt 0.125600 0.748700
vt 0.127400 0.781800
vt 0.179000 0.582800
vt 0.219000 0.978000
vt 0.185300 0.952800
vt 0.092900 0.786300
vt 0.090100 0.748800
vt 0.100900 0.823100
vt 0.135100 0.600900
vt 0.161600 0.568300
vt 0.114200 0.858700
vt 0.114900 0.636200
vt 0.100800 0.673200
vt 0.132600 0.892500
vt 0.092700 0.710900
vt 0.232000 0.517200
vt 0.194200 0.539900
vt 0.156400 0.924200
vt 0.049100 0.749200
vt 0.052400 0.704900
vt 0.185200 0.525100
vt 0.228700 0.509100
vt 0.144900 0.549700
vt 0.175700 0.966100
vt 0.139900 0.940800
vt 0.215000 0.985400
vt 0.053500 0.793000
vt 0.110300 0.581800
vt 0.065200 0.835000
vt 0.083900 0.874300
vt 0.083000 0.619600
vt 0.109000 0.909900
vt 0.063600 0.661200
vt 0.125100 0.961700
vt 0.085200 0.933000
vt 0.004500 0.696500
vt 0.020400 0.644400
vt 0.000100 0.750200
vt 0.178600 0.507600
vt 0.227100 0.500100
vt 0.168200 0.981700
vt 0.007000 0.802900
vt 0.129800 0.526200
vt 0.084900 0.556400
vt 0.212400 0.993700
vt 0.024400 0.852100
vt 0.047700 0.596700
vt 0.051000 0.896100
vt 0.478800 0.104000
vt 0.505400 0.147900
vt 0.464600 0.165000
vt 0.446000 0.125700
vt 0.317500 0.006300
vt 0.314900 0.014600
vt 0.482300 0.402700
vt 0.445200 0.442900
vt 0.419900 0.417600
vt 0.447000 0.379900
vt 0.400600 0.473100
vt 0.385500 0.449700
vt 0.522700 0.197100
vt 0.476400 0.207000
vt 0.361700 0.018300
vt 0.354200 0.034000
vt 0.352100 0.491800
vt 0.345400 0.474400
vt 0.529600 0.249700
vt 0.480700 0.250700
vt 0.525200 0.303200
vt 0.477400 0.294900
vt 0.404900 0.038400
vt 0.390000 0.059300
vt 0.303900 0.499500
vt 0.302200 0.490600
vt 0.509400 0.355200
vt 0.466200 0.338400
vt 0.444700 0.067100
vt 0.420900 0.090200
vt 0.298900 0.482500
vt 0.415200 0.363400
vt 0.429200 0.326600
vt 0.415700 0.141400
vt 0.397300 0.107500
vt 0.429000 0.176900
vt 0.395200 0.398700
vt 0.437000 0.213700
vt 0.310900 0.022000
vt 0.344600 0.047200
vt 0.368800 0.431300
vt 0.336400 0.459700
vt 0.439800 0.251100
vt 0.373500 0.075900
vt 0.437200 0.288900
vt 0.294300 0.475400
vt 0.325700 0.447500
vt 0.402300 0.284600
vt 0.404300 0.251300
vt 0.374200 0.120400
vt 0.356300 0.088800
vt 0.396400 0.318000
vt 0.386200 0.351400
vt 0.387700 0.152700
vt 0.371400 0.384500
vt 0.397000 0.185300
vt 0.402600 0.218200
vt 0.305700 0.028400
vt 0.351400 0.416900
vt 0.333600 0.058000
vt 0.321500 0.066400
vt 0.299700 0.033700
vt 0.314000 0.437900
vt 0.333700 0.405800
vt 0.371100 0.281300
vt 0.372700 0.251200
vt 0.338700 0.098500
vt 0.351800 0.129900
vt 0.288700 0.469400
vt 0.366800 0.311700
vt 0.361400 0.160700
vt 0.359400 0.342600
vt 0.348600 0.374000
vt 0.367900 0.191100
vt 0.371700 0.221200
vt 0.326600 0.366300
vt 0.334200 0.336300
vt 0.315900 0.397700
vt 0.343200 0.223100
vt 0.340900 0.195000
vt 0.308800 0.072700
vt 0.292900 0.037700
vt 0.301500 0.430500
vt 0.343800 0.251000
vt 0.342600 0.279000
vt 0.321000 0.105500
vt 0.282300 0.464700
vt 0.339500 0.307300
vt 0.330100 0.136600
vt 0.336600 0.166300
vt 0.315200 0.197500
vt 0.312700 0.169800
vt 0.305200 0.361100
vt 0.310200 0.332000
vt 0.316500 0.224300
vt 0.285700 0.040400
vt 0.295700 0.077000
vt 0.298200 0.391900
vt 0.288500 0.425200
vt 0.316700 0.250800
vt 0.303300 0.110200
vt 0.275300 0.461100
vt 0.315700 0.277300
vt 0.313600 0.304200
vt 0.308800 0.140900
vt 0.268000 0.458900
vt 0.288800 0.302300
vt 0.290000 0.276200
vt 0.286900 0.329400
vt 0.289500 0.171700
vt 0.287900 0.143300
vt 0.284200 0.357800
vt 0.290400 0.198700
vt 0.290800 0.224800
vt 0.278200 0.041900
vt 0.280500 0.388400
vt 0.290700 0.250500
vt 0.282400 0.079300
vt 0.285600 0.112700
vt 0.275300 0.421800
s 1
usemtl Material.007
f 1/1/1 452/2/2 16/3/3
f 6/4/4 5/5/5 20/6/6 21/7/7
f 12/8/8 11/9/9 26/10/10 27/11/11
f 11/9/9 10/12/12 25/13/13 26/10/10
f 5/5/5 4/14/14 19/15/15 20/6/6
f 10/12/12 9/16/16 24/17/17 25/13/13
f 331/18/18 15/19/19 30/20/20
f 15/19/19 14/21/21 29/22/22 30/20/20
f 4/14/14 3/23/23 18/24/24 19/15/15
f 3/23/23 2/25/25 17/26/26 18/24/24
f 9/16/16 8/27/27 23/28/28 24/17/17
f 14/21/21 13/29/29 28/30/30 29/22/22
f 2/25/25 1/1/1 16/3/3 17/26/26
f 8/27/27 7/31/31 22/32/32 23/28/28
f 7/31/31 6/4/4 21/7/7 22/32/32
f 13/29/29 12/8/8 27/11/11 28/30/30
f 23/28/28 22/32/32 37/33/33 38/34/34
f 22/32/32 21/7/7 36/35/35 37/33/33
f 28/30/30 27/11/11 42/36/36 43/37/37
f 16/3/3 452/2/2 31/38/38
f 21/7/7 20/6/6 35/39/39 36/35/35
f 27/11/11 26/10/10 41/40/40 42/36/36
f 26/10/10 25/13/13 40/41/41 41/40/40
f 20/6/6 19/15/15 34/42/42 35/39/39
f 25/13/13 24/17/17 39/43/43 40/41/41
f 331/18/18 30/20/20 45/44/44
f 30/20/20 29/22/22 44/45/45 45/44/44
f 19/15/15 18/24/24 33/46/46 34/42/42
f 18/24/24 17/26/26 32/47/47 33/46/46
f 24/17/17 23/28/28 38/34/34 39/43/43
f 29/22/22 28/30/30 43/37/37 44/45/45
f 17/26/26 16/3/3 31/38/38 32/47/47
f 44/45/45 43/37/37 58/48/48 59/49/49
f 33/46/46 32/47/47 47/50/50 48/51/51
f 32/47/47 31/38/38 46/52/52 47/50/50
f 38/34/34 37/33/33 52/53/53 53/54/54
f 43/37/37 42/36/36 57/55/55 58/48/48
f 31/38/38 452/2/2 46/52/52
f 37/33/33 36/35/35 51/56/56 52/53/53
f 36/35/35 35/39/39 50/57/57 51/56/56
f 42/36/36 41/40/40 56/58/58 57/55/55
f 35/39/39 34/42/42 49/59/59 50/57/57
f 41/40/40 40/41/41 55/60/60 56/58/58
f 40/41/41 39/43/43 54/61/61 55/60/60
f 331/18/18 45/44/44 60/62/62
f 34/42/42 33/46/46 48/51/51 49/59/59
f 39/43/43 38/34/34 53/54/54 54/61/61
f 45/44/44 44/45/45 59/49/49 60/62/62
f 49/59/59 48/51/51 63/63/63 64/64/64
f 55/60/60 54/61/61 69/65/65 70/66/66
f 54/61/61 53/54/54 68/67/67 69/65/65
f 60/62/62 59/49/49 74/68/68 75/69/69
f 48/51/51 47/50/50 62/70/70 63/63/63
f 53/54/54 52/53/53 67/71/71 68/67/67
f 59/49/49 58/48/48 73/72/72 74/68/68
f 58/48/48 57/55/55 72/73/73 73/72/72
f 47/50/50 46/52/52 61/74/74 62/70/70
f 46/52/52 452/2/2 61/74/74
f 52/53/53 51/56/56 66/75/75 67/71/71
f 57/55/55 56/58/58 71/76/76 72/73/73
f 51/56/56 50/57/57 65/77/77 66/75/75
f 50/57/57 49/59/59 64/64/64 65/77/77
f 56/58/58 55/60/60 70/66/66 71/76/76
f 331/18/18 60/62/62 75/69/69
f 71/76/76 70/66/66 85/78/78 86/79/79
f 331/18/18 75/69/69 90/80/80
f 65/77/77 64/64/64 79/81/81 80/82/82
f 64/64/64 63/63/63 78/83/83 79/81/81
f 70/66/66 69/65/65 84/84/84 85/78/78
f 75/69/69 74/68/68 89/85/85 90/80/80
f 63/63/63 62/70/70 77/86/86 78/83/83
f 69/65/65 68/67/67 83/87/87 84/84/84
f 68/67/67 67/71/71 82/88/88 83/87/87
f 74/68/68 73/72/72 88/89/89 89/85/85
f 62/70/70 61/74/74 76/90/90 77/86/86
f 67/71/71 66/75/75 81/91/91 82/88/88
f 73/72/72 72/73/73 87/92/92 88/89/89
f 72/73/73 71/76/76 86/79/79 87/92/92
f 61/74/74 452/2/2 76/90/90
f 66/75/75 65/77/77 80/82/82 81/91/91
f 76/90/90 452/2/2 91/93/93
f 81/91/91 80/82/82 95/94/94 96/95/95
f 87/92/92 86/79/79 101/96/96 102/97/97
f 86/79/79 85/78/78 100/98/98 101/96/96
f 80/82/82 79/81/81 94/99/99 95/94/94
f 85/78/78 84/84/84 99/100/100 100/98/98
f 331/18/18 90/80/80 105/101/101
f 90/80/80 89/85/85 104/102/102 105/101/101
f 79/81/81 78/83/83 93/103/103 94/99/99
f 78/83/83 77/86/86 92/104/104 93/103/103
f 84/84/84 83/87/87 98/105/105 99/100/100
f 89/85/85 88/89/89 103/106/106 104/102/102
f 77/86/86 76/90/90 91/93/93 92/104/104
f 83/87/87 82/88/88 97/107/107 98/105/105
f 82/88/88 81/91/91 96/95/95 97/107/107
f 88/89/89 87/92/92 102/97/97 103/106/106
f 103/106/106 102/97/97 117/108/108 118/109/109
f 91/93/93 452/2/2 106/110/110
f 97/107/107 96/95/95 111/111/111 112/112/112
f 96/95/95 95/94/94 110/113/113 111/111/111
f 102/97/97 101/96/96 116/114/114 117/108/108
f 95/94/94 94/99/99 109/115/115 110/113/113
f 101/96/96 100/98/98 115/116/116 116/114/114
f 100/98/98 99/100/100 114/117/117 115/116/116
f 331/18/18 105/101/101 120/118/118
f 94/99/99 93/103/103 108/119/119 109/115/115
f 99/100/100 98/105/105 113/120/120 114/117/117
f 105/101/101 104/102/102 119/121/121 120/118/118
f 104/102/102 103/106/106 118/109/109 119/121/121
f 93/103/103 92/104/104 107/122/122 108/119/119
f 92/104/104 91/93/93 106/110/110 107/122/122
f 98/105/105 97/107/107 112/112/112 113/120/120
f 108/119/119 107/122/122 122/123/123 123/124/124
f 113/120/120 112/112/112 127/125/125 128/126/126
f 119/121/121 118/109/109 133/127/127 134/128/128
f 118/109/109 117/108/108 132/129/129 133/127/127
f 107/122/122 106/110/110 121/130/130 122/123/123
f 106/110/110 452/2/2 121/130/130
f 112/112/112 111/111/111 126/131/131 127/125/125
f 117/108/108 116/114/114 131/132/132 132/129/129
f 111/111/111 110/113/113 125/133/133 126/131/131
f 110/113/113 109/115/115 124/134/134 125/133/133
f 116/114/114 115/116/116 130/135/135 131/132/132
f 331/18/18 120/118/118 135/136/136
f 109/115/115 108/119/119 123/124/124 124/134/134
f 115/116/116 114/117/117 129/137/137 130/135/135
f 114/117/117 113/120/120 128/126/126 129/137/137
f 120/118/118 119/121/121 134/128/128 135/136/136
f 124/138/134 123/139/124 138/140/138 139/141/139
f 130/142/135 129/143/137 144/144/140 145/145/141
f 135/146/136 134/147/128 149/148/142 150/149/143
f 123/139/124 122/150/123 137/151/144 138/140/138
f 129/143/137 128/152/126 143/153/145 144/144/140
f 128/152/126 127/154/125 142/155/146 143/153/145
f 134/147/128 133/156/127 148/157/147 149/148/142
f 122/150/123 121/158/130 136/159/148 137/151/144
f 127/154/125 126/160/131 141/161/149 142/155/146
f 133/156/127 132/162/129 147/163/150 148/157/147
f 132/162/129 131/164/132 146/165/151 147/163/150
f 121/158/130 452/166/2 136/159/148
f 126/160/131 125/167/133 140/168/152 141/161/149
f 131/164/132 130/142/135 145/145/141 146/165/151
f 331/169/18 135/146/136 150/149/143
f 125/167/133 124/138/134 139/141/139 140/168/152
f 140/168/152 139/141/139 154/170/153 155/171/154
f 145/145/141 144/144/140 159/172/155 160/173/156
f 331/169/18 150/149/143 165/174/157
f 150/149/143 149/148/142 164/175/158 165/174/157
f 139/141/139 138/140/138 153/176/159 154/170/153
f 138/140/138 137/151/144 152/177/160 153/176/159
f 144/144/140 143/153/145 158/178/161 159/172/155
f 149/148/142 148/157/147 163/179/162 164/175/158
f 137/151/144 136/159/148 151/180/163 152/177/160
f 143/153/145 142/155/146 157/181/164 158/178/161
f 142/155/146 141/161/149 156/182/165 157/181/164
f 148/157/147 147/163/150 162/183/166 163/179/162
f 136/159/148 452/166/2 151/180/163
f 141/161/149 140/168/152 155/171/154 156/182/165
f 147/163/150 146/165/151 161/184/167 162/183/166
f 146/165/151 145/145/141 160/173/156 161/184/167
f 157/181/164 156/182/165 171/185/168 172/186/169
f 156/182/165 155/171/154 170/187/170 171/185/168
f 162/183/166 161/184/167 176/188/171 177/189/172
f 155/171/154 154/170/153 169/190/173 170/187/170
f 161/184/167 160/173/156 175/191/174 176/188/171
f 160/173/156 159/172/155 174/192/175 175/191/174
f 331/169/18 165/174/157 180/193/176
f 154/170/153 153/176/159 168/194/177 169/190/173
f 159/172/155 158/178/161 173/195/178 174/192/175
f 165/174/157 164/175/158 179/196/179 180/193/176
f 164/175/158 163/179/162 178/197/180 179/196/179
f 153/176/159 152/177/160 167/198/181 168/194/177
f 152/177/160 151/180/163 166/199/182 167/198/181
f 158/178/161 157/181/164 172/186/169 173/195/178
f 163/179/162 162/183/166 177/189/172 178/197/180
f 151/180/163 452/166/2 166/199/182
f 178/197/180 177/189/172 192/200/183 193/201/184
f 167/198/181 166/199/182 181/202/185 182/203/186
f 166/199/182 452/166/2 181/202/185
f 172/186/169 171/185/168 186/204/187 187/205/188
f 177/189/172 176/188/171 191/206/189 192/200/183
f 171/185/168 170/187/170 185/207/190 186/204/187
f 170/187/170 169/190/173 184/208/191 185/207/190
f 176/188/171 175/191/174 190/209/192 191/206/189
f 331/169/18 180/193/176 195/210/193
f 169/190/173 168/194/177 183/211/194 184/208/191
f 175/191/174 174/192/175 189/212/195 190/209/192
f 174/192/175 173/195/178 188/213/196 189/212/195
f 180/193/176 179/196/179 194/214/197 195/210/193
f 168/194/177 167/198/181 182/203/186 183/211/194
f 173/195/178 172/186/169 187/205/188 188/213/196
f 179/196/179 178/197/180 193/201/184 194/214/197
f 183/211/194 182/203/186 197/215/198 198/216/199
f 189/212/195 188/213/196 203/217/200 204/218/201
f 188/213/196 187/205/188 202/219/202 203/217/200
f 194/214/197 193/201/184 208/220/203 209/221/204
f 182/203/186 181/202/185 196/222/205 197/215/198
f 187/205/188 186/204/187 201/223/206 202/219/202
f 193/201/184 192/200/183 207/224/207 208/220/203
f 192/200/183 191/206/189 206/225/208 207/224/207
f 181/202/185 452/166/2 196/222/205
f 186/204/187 185/207/190 200/226/209 201/223/206
f 191/206/189 190/209/192 205/227/210 206/225/208
f 331/169/18 195/210/193 210/228/211
f 185/207/190 184/208/191 199/229/212 200/226/209
f 184/208/191 183/211/194 198/216/199 199/229/212
f 190/209/192 189/212/195 204/218/201 205/227/210
f 195/210/193 194/214/197 209/221/204 210/228/211
f 205/227/210 204/218/201 219/230/213 220/231/214
f 331/169/18 210/228/211 225/232/215
f 210/228/211 209/221/204 224/233/216 225/232/215
f 199/229/212 198/216/199 213/234/217 214/235/218
f 198/216/199 197/215/198 212/236/219 213/234/217
f 204/218/201 203/217/200 218/237/220 219/230/213
f 209/221/204 208/220/203 223/238/221 224/233/216
f 197/215/198 196/222/205 211/239/222 212/236/219
f 203/217/200 202/219/202 217/240/223 218/237/220
f 202/219/202 201/223/206 216/241/224 217/240/223
f 208/220/203 207/224/207 222/242/225 223/238/221
f 196/222/205 452/166/2 211/239/222
f 201/223/206 200/226/209 215/243/226 216/241/224
f 207/224/207 206/225/208 221/244/227 222/242/225
f 206/225/208 205/227/210 220/231/214 221/244/227
f 200/226/209 199/229/212 214/235/218 215/243/226
f 215/243/226 214/235/218 229/245/228 230/246/229
f 221/244/227 220/231/214 235/247/230 236/248/231
f 220/231/214 219/230/213 234/249/232 235/247/230
f 331/169/18 225/232/215 240/250/233
f 214/235/218 213/234/217 228/251/234 229/245/228
f 219/230/213 218/237/220 233/252/235 234/249/232
f 225/232/215 224/233/216 239/253/236 240/250/233
f 224/233/216 223/238/221 238/254/237 239/253/236
f 213/234/217 212/236/219 227/255/238 228/251/234
f 212/236/219 211/239/222 226/256/239 227/255/238
f 218/237/220 217/240/223 232/257/240 233/252/235
f 223/238/221 222/242/225 237/258/241 238/254/237
f 211/239/222 452/166/2 226/256/239
f 217/240/223 216/241/224 231/259/242 232/257/240
f 216/241/224 215/243/226 230/246/229 231/259/242
f 222/242/225 221/244/227 236/248/231 237/258/241
f 237/258/241 236/248/231 251/260/243 252/261/244
f 231/259/242 230/246/229 245/262/245 246/263/246
f 230/246/229 229/245/228 244/264/247 245/262/245
f 236/248/231 235/247/230 250/265/248 251/260/243
f 331/169/18 240/250/233 255/266/249
f 229/245/228 228/251/234 243/267/250 244/264/247
f 235/247/230 234/249/232 249/268/251 250/265/248
f 234/249/232 233/252/235 248/269/252 249/268/251
f 240/250/233 239/253/236 254/270/253 255/266/249
f 228/251/234 227/255/238 242/271/254 243/267/250
f 233/252/235 232/257/240 247/272/255 248/269/252
f 239/253/236 238/254/237 253/273/256 254/270/253
f 238/254/237 237/258/241 252/261/244 253/273/256
f 227/255/238 226/256/239 241/274/257 242/271/254
f 226/256/239 452/166/2 241/274/257
f 232/257/240 231/259/242 246/263/246 247/272/255
f 242/271/254 241/274/257 256/275/258 257/276/259
f 247/272/255 246/263/246 261/277/260 262/278/261
f 253/273/256 252/261/244 267/279/262 268/280/263
f 252/261/244 251/260/243 266/281/264 267/279/262
f 241/274/257 452/166/2 256/275/258
f 246/263/246 245/262/245 260/282/265 261/277/260
f 251/260/243 250/265/248 265/283/266 266/281/264
f 331/169/18 255/266/249 270/284/267
f 245/262/245 244/264/247 259/285/268 260/282/265
f 244/264/247 243/267/250 258/286/269 259/285/268
f 250/265/248 249/268/251 264/287/270 265/283/266
f 255/266/249 254/270/253 269/288/271 270/284/267
f 243/267/250 242/271/254 257/276/259 258/286/269
f 249/268/251 248/269/252 263/289/272 264/287/270
f 248/269/252 247/272/255 262/278/261 263/289/272
f 254/270/253 253/273/256 268/280/263 269/288/271
f 258/286/269 257/276/259 272/290/273 273/291/274
f 264/287/270 263/289/272 278/292/275 279/293/276
f 269/288/271 268/280/263 283/294/277 284/295/278
f 257/276/259 256/275/258 271/296/279 272/290/273
f 263/289/272 262/278/261 277/297/280 278/292/275
f 262/278/261 261/277/260 276/298/281 277/297/280
f 268/280/263 267/279/262 282/299/282 283/294/277
f 256/275/258 452/166/2 271/296/279
f 261/277/260 260/282/265 275/300/283 276/298/281
f 267/279/262 266/281/264 281/301/284 282/299/282
f 266/281/264 265/283/266 280/302/285 281/301/284
f 260/282/265 259/285/268 274/303/286 275/300/283
f 265/283/266 264/287/270 279/293/276 280/302/285
f 331/169/18 270/284/267 285/304/287
f 270/284/267 269/288/271 284/295/278 285/304/287
f 259/285/268 258/286/269 273/291/274 274/303/286
f 331/169/18 285/304/287 300/305/288
f 274/303/286 273/291/274 288/306/289 289/307/290
f 279/293/276 278/292/275 293/308/291 294/309/292
f 285/304/287 284/295/278 299/310/293 300/305/288
f 284/295/278 283/294/277 298/311/294 299/310/293
f 273/291/274 272/290/273 287/312/295 288/306/289
f 272/290/273 271/296/279 286/313/296 287/312/295
f 278/292/275 277/297/280 292/314/297 293/308/291
f 283/294/277 282/299/282 297/315/298 298/311/294
f 271/296/279 452/166/2 286/313/296
f 277/297/280 276/298/281 291/316/299 292/314/297
f 276/298/281 275/300/283 290/317/300 291/316/299
f 282/299/282 281/301/284 296/318/301 297/315/298
f 275/300/283 274/303/286 289/307/290 290/317/300
f 281/301/284 280/302/285 295/319/302 296/318/301
f 280/302/285 279/293/276 294/309/292 295/319/302
f 291/316/299 290/317/300 305/320/303 306/321/304
f 290/317/300 289/307/290 304/322/305 305/320/303
f 296/318/301 295/319/302 310/323/306 311/324/307
f 331/169/18 300/305/288 315/325/308
f 289/307/290 288/306/289 303/326/309 304/322/305
f 295/319/302 294/309/292 309/327/310 310/323/306
f 294/309/292 293/308/291 308/328/311 309/327/310
f 300/305/288 299/310/293 314/329/312 315/325/308
f 288/306/289 287/312/295 302/330/313 303/326/309
f 293/308/291 292/314/297 307/331/314 308/328/311
f 299/310/293 298/311/294 313/332/315 314/329/312
f 298/311/294 297/315/298 312/333/316 313/332/315
f 287/312/295 286/313/296 301/334/317 302/330/313
f 286/313/296 452/166/2 301/334/317
f 292/314/297 291/316/299 306/321/304 307/331/314
f 297/315/298 296/318/301 311/324/307 312/333/316
f 312/333/316 311/324/307 326/335/318 327/336/319
f 301/334/317 452/166/2 316/337/320
f 306/321/304 305/320/303 320/338/321 321/339/322
f 311/324/307 310/323/306 325/340/323 326/335/318
f 331/169/18 315/325/308 330/341/324
f 305/320/303 304/322/305 319/342/325 320/338/321
f 304/322/305 303/326/309 318/343/326 319/342/325
f 310/323/306 309/327/310 324/344/327 325/340/323
f 315/325/308 314/329/312 329/345/328 330/341/324
f 303/326/309 302/330/313 317/346/329 318/343/326
f 309/327/310 308/328/311 323/347/330 324/344/327
f 308/328/311 307/331/314 322/348/331 323/347/330
f 314/329/312 313/332/315 328/349/332 329/345/328
f 302/330/313 301/334/317 316/337/320 317/346/329
f 307/331/314 306/321/304 321/339/322 322/348/331
f 313/332/315 312/333/316 327/336/319 328/349/332
f 317/346/329 316/337/320 332/350/333 333/351/334
f 323/347/330 322/348/331 338/352/335 339/353/336
f 322/348/331 321/339/322 337/354/337 338/352/335
f 328/349/332 327/336/319 343/355/338 344/356/339
f 316/337/320 452/166/2 332/350/333
f 321/339/322 320/338/321 336/357/340 337/354/337
f 327/336/319 326/335/318 342/358/341 343/355/338
f 326/335/318 325/340/323 341/359/342 342/358/341
f 320/338/321 319/342/325 335/360/343 336/357/340
f 325/340/323 324/344/327 340/361/344 341/359/342
f 331/169/18 330/341/324 346/362/345
f 330/341/324 329/345/328 345/363/346 346/362/345
f 319/342/325 318/343/326 334/364/347 335/360/343
f 318/343/326 317/346/329 333/351/334 334/364/347
f 324/344/327 323/347/330 339/353/336 340/361/344
f 329/345/328 328/349/332 344/356/339 345/363/346
f 340/361/344 339/353/336 354/365/348 355/366/349
f 346/362/345 345/363/346 360/367/350 361/368/351
f 345/363/346 344/356/339 359/369/352 360/367/350
f 334/364/347 333/351/334 348/370/353 349/371/354
f 333/351/334 332/350/333 347/372/355 348/370/353
f 339/353/336 338/352/335 353/373/356 354/365/348
f 344/356/339 343/355/338 358/374/357 359/369/352
f 332/350/333 452/166/2 347/372/355
f 338/352/335 337/354/337 352/375/358 353/373/356
f 337/354/337 336/357/340 351/376/359 352/375/358
f 343/355/338 342/358/341 357/377/360 358/374/357
f 336/357/340 335/360/343 350/378/361 351/376/359
f 342/358/341 341/359/342 356/379/362 357/377/360
f 341/359/342 340/361/344 355/366/349 356/379/362
f 331/169/18 346/362/345 361/368/351
f 335/360/343 334/364/347 349/371/354 350/378/361
f 350/378/361 349/371/354 364/380/363 365/381/364
f 356/379/362 355/366/349 370/382/365 371/383/366
f 355/366/349 354/365/348 369/384/367 370/382/365
f 361/368/351 360/367/350 375/385/368 376/386/369
f 349/371/354 348/370/353 363/387/370 364/380/363
f 354/365/348 353/373/356 368/388/371 369/384/367
f 360/367/350 359/369/352 374/389/372 375/385/368
f 359/369/352 358/374/357 373/390/373 374/389/372
f 348/370/353 347/372/355 362/391/374 363/387/370
f 347/372/355 452/166/2 362/391/374
f 353/373/356 352/375/358 367/392/375 368/388/371
f 358/374/357 357/377/360 372/393/376 373/390/373
f 352/375/358 351/376/359 366/394/377 367/392/375
f 351/376/359 350/378/361 365/381/364 366/394/377
f 357/377/360 356/379/362 371/383/366 372/393/376
f 331/169/18 361/368/351 376/386/369
f 372/395/376 371/396/366 386/397/378 387/398/379
f 331/18/18 376/399/369 391/400/380
f 366/401/377 365/402/364 380/403/381 381/404/382
f 365/402/364 364/405/363 379/406/383 380/403/381
f 371/396/366 370/407/365 385/408/384 386/397/378
f 376/399/369 375/409/368 390/410/385 391/400/380
f 364/405/363 363/411/370 378/412/386 379/406/383
f 370/407/365 369/413/367 384/414/387 385/408/384
f 369/413/367 368/415/371 383/416/388 384/414/387
f 375/409/368 374/417/372 389/418/389 390/410/385
f 363/411/370 362/419/374 377/420/390 378/412/386
f 368/415/371 367/421/375 382/422/391 383/416/388
f 374/417/372 373/423/373 388/424/392 389/418/389
f 373/423/373 372/395/376 387/398/379 388/424/392
f 362/419/374 452/2/2 377/420/390
f 367/421/375 366/401/377 381/404/382 382/422/391
f 377/420/390 452/2/2 392/425/393
f 382/422/391 381/404/382 396/426/394 397/427/395
f 388/424/392 387/398/379 402/428/396 403/429/397
f 387/398/379 386/397/378 401/430/398 402/428/396
f 381/404/382 380/403/381 395/431/399 396/426/394
f 386/397/378 385/408/384 400/432/400 401/430/398
f 331/18/18 391/400/380 406/433/401
f 391/400/380 390/410/385 405/434/402 406/433/401
f 380/403/381 379/406/383 394/435/403 395/431/399
f 379/406/383 378/412/386 393/436/404 394/435/403
f 385/408/384 384/414/387 399/437/405 400/432/400
f 390/410/385 389/418/389 404/438/406 405/434/402
f 378/412/386 377/420/390 392/425/393 393/436/404
f 384/414/387 383/416/388 398/439/407 399/437/405
f 383/416/388 382/422/391 397/427/395 398/439/407
f 389/418/389 388/424/392 403/429/397 404/438/406
f 393/436/404 392/425/393 407/440/408 408/441/409
f 399/437/405 398/439/407 413/442/410 414/443/411
f 404/438/406 403/429/397 418/444/412 419/445/413
f 392/425/393 452/2/2 407/440/408
f 398/439/407 397/427/395 412/446/414 413/442/410
f 397/427/395 396/426/394 411/447/415 412/446/414
f 403/429/397 402/428/396 417/448/416 418/444/412
f 396/426/394 395/431/399 410/449/417 411/447/415
f 402/428/396 401/430/398 416/450/418 417/448/416
f 401/430/398 400/432/400 415/451/419 416/450/418
f 331/18/18 406/433/401 421/452/420
f 395/431/399 394/435/403 409/453/421 410/449/417
f 400/432/400 399/437/405 414/443/411 415/451/419
f 406/433/401 405/434/402 420/454/422 421/452/420
f 405/434/402 404/438/406 419/445/413 420/454/422
f 394/435/403 393/436/404 408/441/409 409/453/421
f 421/452/420 420/454/422 435/455/423 436/456/424
f 409/453/421 408/441/409 423/457/425 424/458/426
f 414/443/411 413/442/410 428/459/427 429/460/428
f 420/454/422 419/445/413 434/461/429 435/455/423
f 419/445/413 418/444/412 433/462/430 434/461/429
f 408/441/409 407/440/408 422/463/431 423/457/425
f 407/440/408 452/2/2 422/463/431
f 413/442/410 412/446/414 427/464/432 428/459/427
f 418/444/412 417/448/416 432/465/433 433/462/430
f 412/446/414 411/447/415 426/466/434 427/464/432
f 411/447/415 410/449/417 425/467/435 426/466/434
f 417/448/416 416/450/418 431/468/436 432/465/433
f 331/18/18 421/452/420 436/456/424
f 410/449/417 409/453/421 424/458/426 425/467/435
f 416/450/418 415/451/419 430/469/437 431/468/436
f 415/451/419 414/443/411 429/460/428 430/469/437
f 426/466/434 425/467/435 440/470/438 441/471/439
f 425/467/435 424/458/426 439/472/440 440/470/438
f 431/468/436 430/469/437 445/473/441 446/474/442
f 436/456/424 435/455/423 450/475/443 451/476/444
f 424/458/426 423/457/425 438/477/445 439/472/440
f 430/469/437 429/460/428 444/478/446 445/473/441
f 429/460/428 428/459/427 443/479/447 444/478/446
f 435/455/423 434/461/429 449/480/448 450/475/443
f 423/457/425 422/463/431 437/481/449 438/477/445
f 428/459/427 427/464/432 442/482/450 443/479/447
f 434/461/429 433/462/430 448/483/451 449/480/448
f 433/462/430 432/465/433 447/484/452 448/483/451
f 422/463/431 452/2/2 437/481/449
f 427/464/432 426/466/434 441/471/439 442/482/450
f 432/465/433 431/468/436 446/474/442 447/484/452
f 331/18/18 436/456/424 451/476/444
f 447/484/452 446/474/442 462/485/453 463/486/454
f 441/471/439 440/470/438 456/487/455 457/488/456
f 446/474/442 445/473/441 461/489/457 462/485/453
f 331/18/18 451/476/444 467/490/458
f 451/476/444 450/475/443 466/491/459 467/490/458
f 440/470/438 439/472/440 455/492/460 456/487/455
f 439/472/440 438/477/445 454/493/461 455/492/460
f 445/473/441 444/478/446 460/494/462 461/489/457
f 450/475/443 449/480/448 465/495/463 466/491/459
f 438/477/445 437/481/449 453/496/464 454/493/461
f 444/478/446 443/479/447 459/497/465 460/494/462
f 443/479/447 442/482/450 458/498/466 459/497/465
f 449/480/448 448/483/451 464/499/467 465/495/463
f 437/481/449 452/2/2 453/496/464
f 442/482/450 441/471/439 457/488/456 458/498/466
f 448/483/451 447/484/452 463/486/454 464/499/467
f 453/496/464 452/2/2 468/500/468
f 459/497/465 458/498/466 473/501/469 474/502/470
f 458/498/466 457/488/456 472/503/471 473/501/469
f 464/499/467 463/486/454 478/504/472 479/505/473
f 457/488/456 456/487/455 471/506/474 472/503/471
f 463/486/454 462/485/453 477/507/475 478/504/472
f 462/485/453 461/489/457 476/508/476 477/507/475
f 331/18/18 467/490/458 482/509/477
f 456/487/455 455/492/460 470/510/478 471/506/474
f 461/489/457 460/494/462 475/511/479 476/508/476
f 467/490/458 466/491/459 481/512/480 482/509/477
f 466/491/459 465/495/463 480/513/481 481/512/480
f 455/492/460 454/493/461 469/514/482 470/510/478
f 454/493/461 453/496/464 468/500/468 469/514/482
f 460/494/462 459/497/465 474/502/470 475/511/479
f 465/495/463 464/499/467 479/505/473 480/513/481
f 475/511/479 474/502/470 7/31/31 8/27/27
f 481/512/480 480/513/481 13/29/29 14/21/21
f 480/513/481 479/505/473 12/8/8 13/29/29
f 469/514/482 468/500/468 1/1/1 2/25/25
f 468/500/468 452/2/2 1/1/1
f 474/502/470 473/501/469 6/4/4 7/31/31
f 479/505/473 478/504/472 11/9/9 12/8/8
f 473/501/469 472/503/471 5/5/5 6/4/4
f 472/503/471 471/506/474 4/14/14 5/5/5
f 478/504/472 477/507/475 10/12/12 11/9/9
f 331/18/18 482/509/477 15/19/19
f 471/506/474 470/510/478 3/23/23 4/14/14
f 477/507/475 476/508/476 9/16/16 10/12/12
f 476/508/476 475/511/479 8/27/27 9/16/16
f 482/509/477 481/512/480 14/21/21 15/19/19
f 470/510/478 469/514/482 2/25/25 3/23/23
