# Blender 5.2.2 LTS
# www.blender.org
mtllib planet1+obj.mtl
o planet_1_Mesh
v 11.489954 -8.507357 -1.298105
v 11.489954 -4.014442 -1.298105
v 11.928215 -8.464191 -1.298105
v 11.919794 -8.464191 -1.383606
v 11.894855 -8.464191 -1.465821
v 11.854355 -8.464191 -1.541591
v 11.799851 -8.464191 -1.608003
v 11.733438 -8.464191 -1.662507
v 11.657669 -8.464191 -1.703007
v 11.575454 -8.464191 -1.727946
v 11.489954 -8.464191 -1.736368
v 11.404452 -8.464191 -1.727946
v 11.322238 -8.464191 -1.703007
v 11.246469 -8.464191 -1.662507
v 11.180056 -8.464191 -1.608003
v 11.125552 -8.464191 -1.541591
v 11.085052 -8.464191 -1.465821
v 11.060113 -8.464191 -1.383606
v 11.051692 -8.464191 -1.298105
v 11.060113 -8.464191 -1.212605
v 11.085052 -8.464191 -1.130390
v 11.125552 -8.464191 -1.054620
v 11.180056 -8.464191 -0.988207
v 11.246469 -8.464191 -0.933704
v 11.322238 -8.464191 -0.893204
v 11.404452 -8.464191 -0.868265
v 11.489954 -8.464191 -0.859844
v 11.575454 -8.464191 -0.868265
v 11.657669 -8.464191 -0.893204
v 11.733438 -8.464191 -0.933704
v 11.799851 -8.464191 -0.988207
v 11.854355 -8.464191 -1.054620
v 11.894855 -8.464191 -1.130390
v 11.919794 -8.464191 -1.212605
v 12.349635 -8.336355 -1.298105
v 12.333117 -8.336355 -1.465821
v 12.284196 -8.336355 -1.627091
v 12.204753 -8.336355 -1.775719
v 12.097840 -8.336355 -1.905992
v 11.967567 -8.336355 -2.012905
v 11.818939 -8.336354 -2.092348
v 11.657669 -8.336354 -2.141269
v 11.489954 -8.336354 -2.157787
v 11.322238 -8.336354 -2.141269
v 11.160968 -8.336354 -2.092348
v 11.012340 -8.336355 -2.012905
v 10.882067 -8.336355 -1.905992
v 10.775154 -8.336355 -1.775719
v 10.695711 -8.336355 -1.627091
v 10.646791 -8.336355 -1.465821
v 10.630272 -8.336355 -1.298105
v 10.646791 -8.336355 -1.130390
v 10.695711 -8.336355 -0.969120
v 10.775154 -8.336355 -0.820492
v 10.882067 -8.336355 -0.690219
v 11.012340 -8.336355 -0.583306
v 11.160968 -8.336355 -0.503863
v 11.322238 -8.336355 -0.454942
v 11.489954 -8.336355 -0.438424
v 11.657669 -8.336355 -0.454942
v 11.818939 -8.336355 -0.503863
v 11.967567 -8.336355 -0.583306
v 12.097840 -8.336355 -0.690219
v 12.204753 -8.336355 -0.820492
v 12.284196 -8.336355 -0.969120
v 12.333117 -8.336355 -1.130390
v 12.738018 -8.128760 -1.298105
v 12.714037 -8.128760 -1.541591
v 12.643015 -8.128760 -1.775719
v 12.527681 -8.128760 -1.991493
v 12.372468 -8.128760 -2.180620
v 12.183341 -8.128760 -2.335833
v 11.967567 -8.128759 -2.451167
v 11.733438 -8.128759 -2.522189
v 11.489954 -8.128759 -2.546170
v 11.246469 -8.128759 -2.522189
v 11.012340 -8.128759 -2.451167
v 10.796566 -8.128760 -2.335833
v 10.607439 -8.128760 -2.180620
v 10.452226 -8.128760 -1.991493
v 10.336892 -8.128760 -1.775719
v 10.265870 -8.128760 -1.541591
v 10.241889 -8.128760 -1.298105
v 10.265870 -8.128760 -1.054620
v 10.336892 -8.128760 -0.820492
v 10.452226 -8.128760 -0.604718
v 10.607439 -8.128760 -0.415591
v 10.796566 -8.128760 -0.260378
v 11.012340 -8.128760 -0.145044
v 11.246469 -8.128760 -0.074022
v 11.489954 -8.128760 -0.050041
v 11.733438 -8.128760 -0.074022
v 11.967567 -8.128760 -0.145044
v 12.183341 -8.128760 -0.260378
v 12.372468 -8.128760 -0.415591
v 12.527681 -8.128760 -0.604718
v 12.643015 -8.128760 -0.820492
v 12.714037 -8.128760 -1.054620
v 13.078438 -7.849384 -1.298105
v 13.047916 -7.849384 -1.608003
v 12.957522 -7.849384 -1.905992
v 12.810730 -7.849384 -2.180620
v 12.613182 -7.849384 -2.421334
v 12.372468 -7.849384 -2.618882
v 12.097840 -7.849384 -2.765674
v 11.799851 -7.849384 -2.856068
v 11.489954 -7.849384 -2.886590
v 11.180056 -7.849384 -2.856068
v 10.882067 -7.849384 -2.765674
v 10.607439 -7.849384 -2.618882
v 10.366725 -7.849384 -2.421334
v 10.169177 -7.849384 -2.180620
v 10.022385 -7.849384 -1.905992
v 9.931991 -7.849384 -1.608003
v 9.901468 -7.849384 -1.298105
v 9.931991 -7.849384 -0.988208
v 10.022385 -7.849384 -0.690219
v 10.169177 -7.849384 -0.415591
v 10.366725 -7.849384 -0.174877
v 10.607439 -7.849384 0.022671
v 10.882067 -7.849384 0.169463
v 11.180056 -7.849384 0.259857
v 11.489954 -7.849384 0.290379
v 11.799851 -7.849384 0.259857
v 12.097840 -7.849384 0.169463
v 12.372468 -7.849384 0.022671
v 12.613182 -7.849384 -0.174877
v 12.810730 -7.849384 -0.415591
v 12.957522 -7.849384 -0.690219
v 13.047916 -7.849384 -0.988208
v 13.357814 -7.508964 -1.298105
v 13.321924 -7.508964 -1.662507
v 13.215631 -7.508964 -2.012905
v 13.043022 -7.508964 -2.335833
v 12.810730 -7.508964 -2.618882
v 12.527681 -7.508964 -2.851175
v 12.204753 -7.508964 -3.023784
v 11.854355 -7.508964 -3.130075
v 11.489954 -7.508964 -3.165966
v 11.125552 -7.508964 -3.130075
v 10.775154 -7.508964 -3.023784
v 10.452226 -7.508964 -2.851175
v 10.169177 -7.508964 -2.618882
v 9.936884 -7.508964 -2.335833
v 9.764276 -7.508964 -2.012905
v 9.657984 -7.508964 -1.662507
v 9.622093 -7.508964 -1.298105
v 9.657984 -7.508964 -0.933704
v 9.764276 -7.508964 -0.583306
v 9.936884 -7.508964 -0.260378
v 10.169177 -7.508964 0.022671
v 10.452226 -7.508964 0.254964
v 10.775154 -7.508964 0.427573
v 11.125552 -7.508964 0.533865
v 11.489954 -7.508964 0.569755
v 11.854355 -7.508964 0.533865
v 12.204753 -7.508964 0.427573
v 12.527681 -7.508964 0.254964
v 12.810730 -7.508964 0.022671
v 13.043022 -7.508964 -0.260378
v 13.215631 -7.508964 -0.583306
v 13.321924 -7.508964 -0.933704
v 13.565409 -7.120581 -1.298105
v 13.525530 -7.120581 -1.703007
v 13.407424 -7.120581 -2.092348
v 13.215631 -7.120581 -2.451167
v 12.957522 -7.120581 -2.765674
v 12.643015 -7.120581 -3.023784
v 12.284196 -7.120581 -3.215576
v 11.894855 -7.120581 -3.333682
v 11.489954 -7.120581 -3.373561
v 11.085052 -7.120581 -3.333682
v 10.695711 -7.120581 -3.215576
v 10.336892 -7.120581 -3.023784
v 10.022385 -7.120581 -2.765674
v 9.764276 -7.120581 -2.451167
v 9.572483 -7.120581 -2.092348
v 9.454377 -7.120581 -1.703007
v 9.414498 -7.120581 -1.298105
v 9.454377 -7.120581 -0.893204
v 9.572483 -7.120581 -0.503863
v 9.764276 -7.120582 -0.145044
v 10.022385 -7.120582 0.169463
v 10.336892 -7.120582 0.427573
v 10.695711 -7.120582 0.619365
v 11.085052 -7.120582 0.737471
v 11.489954 -7.120582 0.777350
v 11.894855 -7.120582 0.737471
v 12.284196 -7.120582 0.619365
v 12.643015 -7.120582 0.427573
v 12.957522 -7.120582 0.169463
v 13.215631 -7.120582 -0.145044
v 13.407424 -7.120581 -0.503863
v 13.525530 -7.120581 -0.893204
v 13.693245 -6.699162 -1.298105
v 13.650909 -6.699162 -1.727946
v 13.525530 -6.699162 -2.141268
v 13.321924 -6.699162 -2.522189
v 13.047916 -6.699162 -2.856068
v 12.714037 -6.699162 -3.130075
v 12.333117 -6.699161 -3.333681
v 11.919794 -6.699161 -3.459061
v 11.489954 -6.699161 -3.501397
v 11.060113 -6.699161 -3.459061
v 10.646791 -6.699161 -3.333681
v 10.265870 -6.699162 -3.130075
v 9.931991 -6.699162 -2.856068
v 9.657984 -6.699162 -2.522189
v 9.454377 -6.699162 -2.141268
v 9.328998 -6.699162 -1.727946
v 9.286662 -6.699162 -1.298105
v 9.328998 -6.699162 -0.868264
v 9.454377 -6.699162 -0.454942
v 9.657984 -6.699162 -0.074022
v 9.931991 -6.699162 0.259857
v 10.265870 -6.699162 0.533865
v 10.646791 -6.699162 0.737471
v 11.060113 -6.699162 0.862851
v 11.489954 -6.699162 0.905186
v 11.919794 -6.699162 0.862851
v 12.333117 -6.699162 0.737471
v 12.714037 -6.699162 0.533865
v 13.047916 -6.699162 0.259857
v 13.321924 -6.699162 -0.074022
v 13.525530 -6.699162 -0.454942
v 13.650909 -6.699162 -0.868264
v 13.736410 -6.260900 -1.298105
v 13.693245 -6.260900 -1.736367
v 13.565409 -6.260900 -2.157787
v 13.357814 -6.260900 -2.546170
v 13.078438 -6.260900 -2.886590
v 12.738018 -6.260900 -3.165966
v 12.349635 -6.260899 -3.373560
v 11.928215 -6.260899 -3.501397
v 11.489954 -6.260899 -3.544562
v 11.051692 -6.260899 -3.501397
v 10.630272 -6.260899 -3.373560
v 10.241889 -6.260900 -3.165966
v 9.901468 -6.260900 -2.886590
v 9.622093 -6.260900 -2.546170
v 9.414498 -6.260900 -2.157787
v 9.286662 -6.260900 -1.736367
v 9.243497 -6.260900 -1.298105
v 9.286662 -6.260900 -0.859843
v 9.414498 -6.260900 -0.438424
v 9.622093 -6.260900 -0.050041
v 9.901468 -6.260900 0.290380
v 10.241889 -6.260900 0.569755
v 10.630272 -6.260900 0.777350
v 11.051692 -6.260900 0.905186
v 11.489954 -6.260900 0.948352
v 11.928215 -6.260900 0.905186
v 12.349635 -6.260900 0.777350
v 12.738018 -6.260900 0.569755
v 13.078438 -6.260900 0.290380
v 13.357814 -6.260900 -0.050041
v 13.565409 -6.260900 -0.438424
v 13.693245 -6.260900 -0.859843
v 13.693245 -5.822638 -1.298105
v 13.650909 -5.822638 -1.727946
v 13.525530 -5.822638 -2.141268
v 13.321924 -5.822638 -2.522188
v 13.047916 -5.822638 -2.856068
v 12.714037 -5.822638 -3.130075
v 12.333117 -5.822638 -3.333681
v 11.919794 -5.822638 -3.459061
v 11.489954 -5.822638 -3.501397
v 11.060113 -5.822638 -3.459061
v 10.646791 -5.822638 -3.333681
v 10.265870 -5.822638 -3.130075
v 9.931991 -5.822638 -2.856068
v 9.657984 -5.822638 -2.522188
v 9.454377 -5.822638 -2.141268
v 9.328998 -5.822638 -1.727946
v 9.286662 -5.822638 -1.298105
v 9.328998 -5.822638 -0.868264
v 9.454377 -5.822638 -0.454942
v 9.657984 -5.822638 -0.074022
v 9.931991 -5.822638 0.259857
v 10.265870 -5.822638 0.533865
v 10.646791 -5.822638 0.737471
v 11.060113 -5.822638 0.862851
v 11.489954 -5.822638 0.905186
v 11.919794 -5.822638 0.862851
v 12.333117 -5.822638 0.737471
v 12.714037 -5.822638 0.533865
v 13.047916 -5.822638 0.259857
v 13.321924 -5.822638 -0.074022
v 13.525530 -5.822638 -0.454942
v 13.650909 -5.822638 -0.868264
v 13.565409 -5.401217 -1.298105
v 13.525530 -5.401217 -1.703007
v 13.407424 -5.401217 -2.092348
v 13.215631 -5.401217 -2.451167
v 12.957522 -5.401217 -2.765674
v 12.643015 -5.401217 -3.023783
v 12.284196 -5.401217 -3.215576
v 11.894855 -5.401217 -3.333681
v 11.489954 -5.401217 -3.373560
v 11.085052 -5.401217 -3.333681
v 10.695711 -5.401217 -3.215576
v 10.336892 -5.401217 -3.023783
v 10.022385 -5.401217 -2.765674
v 9.764276 -5.401217 -2.451167
v 9.572483 -5.401217 -2.092348
v 9.454377 -5.401217 -1.703007
v 9.414498 -5.401217 -1.298105
v 9.454377 -5.401217 -0.893204
v 9.572483 -5.401218 -0.503863
v 9.764276 -5.401218 -0.145044
v 10.022385 -5.401218 0.169463
v 10.336892 -5.401218 0.427573
v 10.695711 -5.401218 0.619365
v 11.085052 -5.401218 0.737471
v 11.489954 -5.401218 0.777350
v 11.894855 -5.401218 0.737471
v 12.284196 -5.401218 0.619365
v 12.643015 -5.401218 0.427573
v 12.957522 -5.401218 0.169463
v 13.215631 -5.401218 -0.145044
v 13.407424 -5.401218 -0.503863
v 13.525530 -5.401217 -0.893204
v 13.357814 -5.012835 -1.298105
v 13.321924 -5.012835 -1.662507
v 13.215631 -5.012835 -2.012904
v 13.043022 -5.012835 -2.335833
v 12.810730 -5.012835 -2.618882
v 12.527681 -5.012835 -2.851174
v 12.204753 -5.012835 -3.023783
v 11.854355 -5.012835 -3.130075
v 11.489954 -5.012835 -3.165966
v 11.125552 -5.012835 -3.130075
v 10.775154 -5.012835 -3.023783
v 10.452226 -5.012835 -2.851174
v 10.169177 -5.012835 -2.618882
v 9.936884 -5.012835 -2.335833
v 9.764276 -5.012835 -2.012904
v 9.657984 -5.012835 -1.662507
v 9.622093 -5.012835 -1.298105
v 9.657984 -5.012835 -0.933704
v 9.764276 -5.012835 -0.583306
v 9.936884 -5.012835 -0.260378
v 10.169177 -5.012835 0.022672
v 10.452226 -5.012835 0.254964
v 10.775154 -5.012835 0.427573
v 11.125552 -5.012835 0.533865
v 11.489954 -5.012835 0.569755
v 11.854355 -5.012835 0.533865
v 12.204753 -5.012835 0.427573
v 12.527681 -5.012835 0.254964
v 12.810730 -5.012835 0.022672
v 13.043022 -5.012835 -0.260378
v 13.215631 -5.012835 -0.583306
v 13.321924 -5.012835 -0.933704
v 13.078438 -4.672415 -1.298105
v 13.047916 -4.672415 -1.608003
v 12.957522 -4.672415 -1.905992
v 12.810730 -4.672415 -2.180620
v 12.613182 -4.672415 -2.421334
v 12.372468 -4.672415 -2.618882
v 12.097840 -4.672415 -2.765674
v 11.799851 -4.672415 -2.856068
v 11.489954 -4.672415 -2.886590
v 11.180056 -4.672415 -2.856068
v 10.882067 -4.672415 -2.765674
v 10.607439 -4.672415 -2.618882
v 10.366725 -4.672415 -2.421334
v 10.169177 -4.672415 -2.180620
v 10.022385 -4.672415 -1.905992
v 9.931991 -4.672415 -1.608003
v 9.901468 -4.672415 -1.298105
v 9.931991 -4.672415 -0.988207
v 10.022385 -4.672415 -0.690218
v 10.169177 -4.672415 -0.415590
v 10.366725 -4.672415 -0.174877
v 10.607439 -4.672415 0.022672
v 10.882067 -4.672415 0.169463
v 11.180056 -4.672415 0.259857
v 11.489954 -4.672415 0.290380
v 11.799851 -4.672415 0.259857
v 12.097840 -4.672415 0.169463
v 12.372468 -4.672415 0.022672
v 12.613182 -4.672415 -0.174877
v 12.810730 -4.672415 -0.415590
v 12.957522 -4.672415 -0.690218
v 13.047916 -4.672415 -0.988207
v 12.738018 -4.393039 -1.298105
v 12.714037 -4.393039 -1.541590
v 12.643015 -4.393039 -1.775719
v 12.527681 -4.393039 -1.991493
v 12.372468 -4.393039 -2.180620
v 12.183341 -4.393039 -2.335833
v 11.967567 -4.393039 -2.451166
v 11.733438 -4.393039 -2.522188
v 11.489954 -4.393039 -2.546170
v 11.246469 -4.393039 -2.522188
v 11.012340 -4.393039 -2.451166
v 10.796566 -4.393039 -2.335833
v 10.607439 -4.393039 -2.180620
v 10.452226 -4.393039 -1.991493
v 10.336892 -4.393039 -1.775719
v 10.265870 -4.393039 -1.541590
v 10.241889 -4.393039 -1.298105
v 10.265870 -4.393039 -1.054620
v 10.336892 -4.393039 -0.820492
v 10.452226 -4.393039 -0.604718
v 10.607439 -4.393039 -0.415590
v 10.796566 -4.393039 -0.260377
v 11.012340 -4.393039 -0.145044
v 11.246469 -4.393039 -0.074022
v 11.489954 -4.393039 -0.050041
v 11.733438 -4.393039 -0.074022
v 11.967567 -4.393039 -0.145044
v 12.183341 -4.393039 -0.260377
v 12.372468 -4.393039 -0.415590
v 12.527681 -4.393039 -0.604718
v 12.643015 -4.393039 -0.820492
v 12.714037 -4.393039 -1.054620
v 12.349635 -4.185444 -1.298105
v 12.333117 -4.185444 -1.465821
v 12.284196 -4.185444 -1.627091
v 12.204753 -4.185444 -1.775719
v 12.097840 -4.185444 -1.905992
v 11.967567 -4.185444 -2.012904
v 11.818939 -4.185444 -2.092347
v 11.657669 -4.185444 -2.141268
v 11.489954 -4.185444 -2.157787
v 11.322238 -4.185444 -2.141268
v 11.160968 -4.185444 -2.092347
v 11.012340 -4.185444 -2.012904
v 10.882067 -4.185444 -1.905992
v 10.775154 -4.185444 -1.775719
v 10.695711 -4.185444 -1.627091
v 10.646791 -4.185444 -1.465821
v 10.630272 -4.185444 -1.298105
v 10.646791 -4.185444 -1.130390
v 10.695711 -4.185444 -0.969119
v 10.775154 -4.185444 -0.820492
v 10.882067 -4.185444 -0.690218
v 11.012340 -4.185444 -0.583306
v 11.160968 -4.185445 -0.503863
v 11.322238 -4.185445 -0.454942
v 11.489954 -4.185445 -0.438423
v 11.657669 -4.185445 -0.454942
v 11.818939 -4.185445 -0.503863
v 11.967567 -4.185444 -0.583306
v 12.097840 -4.185444 -0.690218
v 12.204753 -4.185444 -0.820492
v 12.284196 -4.185444 -0.969119
v 12.333117 -4.185444 -1.130390
v 11.928215 -4.057608 -1.298105
v 11.919794 -4.057608 -1.383606
v 11.894855 -4.057608 -1.465821
v 11.854355 -4.057608 -1.541590
v 11.799851 -4.057608 -1.608003
v 11.733438 -4.057608 -1.662507
v 11.657669 -4.057608 -1.703006
v 11.575454 -4.057608 -1.727946
v 11.489954 -4.057608 -1.736367
v 11.404452 -4.057608 -1.727946
v 11.322238 -4.057608 -1.703006
v 11.246469 -4.057608 -1.662507
v 11.180056 -4.057608 -1.608003
v 11.125552 -4.057608 -1.541590
v 11.085052 -4.057608 -1.465821
v 11.060113 -4.057608 -1.383606
v 11.051692 -4.057608 -1.298105
v 11.060113 -4.057608 -1.212605
v 11.085052 -4.057608 -1.130390
v 11.125552 -4.057608 -1.054620
v 11.180056 -4.057608 -0.988207
v 11.246469 -4.057608 -0.933704
v 11.322238 -4.057608 -0.893204
v 11.404452 -4.057608 -0.868264
v 11.489954 -4.057608 -0.859843
v 11.575454 -4.057608 -0.868264
v 11.657669 -4.057608 -0.893204
v 11.733438 -4.057608 -0.933704
v 11.799851 -4.057608 -0.988207
v 11.854355 -4.057608 -1.054620
v 11.894855 -4.057608 -1.130390
v 11.919794 -4.057608 -1.212605
vn 0.1913 -0.9808 -0.0381
vn 0.3753 -0.9239 -0.0747
vn 0.3826 -0.9239 -0.0000
vn 0.1951 -0.9808 -0.0000
vn 0.1802 -0.9808 -0.0747
vn 0.3535 -0.9239 -0.1464
vn 0.1622 -0.9808 -0.1084
vn 0.3182 -0.9239 -0.2126
vn 0.1379 -0.9808 -0.1379
vn 0.2706 -0.9239 -0.2706
vn 0.1084 -0.9808 -0.1622
vn 0.2126 -0.9239 -0.3182
vn 0.0746 -0.9808 -0.1802
vn 0.1464 -0.9239 -0.3535
vn 0.0381 -0.9808 -0.1913
vn 0.0747 -0.9239 -0.3753
vn -0.0000 -0.9808 -0.1951
vn -0.0000 -0.9239 -0.3827
vn -0.0381 -0.9808 -0.1913
vn -0.0747 -0.9239 -0.3753
vn -0.0746 -0.9808 -0.1802
vn -0.1464 -0.9239 -0.3535
vn -0.1084 -0.9808 -0.1622
vn -0.2126 -0.9239 -0.3182
vn -0.1379 -0.9808 -0.1379
vn -0.2706 -0.9239 -0.2706
vn -0.1622 -0.9808 -0.1084
vn -0.3182 -0.9239 -0.2126
vn -0.1802 -0.9808 -0.0747
vn -0.3535 -0.9239 -0.1464
vn -0.1913 -0.9808 -0.0381
vn -0.3753 -0.9239 -0.0747
vn -0.1951 -0.9808 -0.0000
vn -0.3827 -0.9239 -0.0000
vn -0.1913 -0.9808 0.0381
vn -0.3753 -0.9239 0.0747
vn -0.1802 -0.9808 0.0747
vn -0.3535 -0.9239 0.1464
vn -0.1622 -0.9808 0.1084
vn -0.3182 -0.9239 0.2126
vn -0.1379 -0.9808 0.1379
vn -0.2706 -0.9239 0.2706
vn -0.1084 -0.9808 0.1622
vn -0.2126 -0.9239 0.3182
vn -0.0746 -0.9808 0.1802
vn -0.1464 -0.9239 0.3535
vn -0.0381 -0.9808 0.1913
vn -0.0747 -0.9239 0.3753
vn -0.0000 -0.9808 0.1951
vn -0.0000 -0.9239 0.3827
vn 0.0381 -0.9808 0.1913
vn 0.0747 -0.9239 0.3753
vn 0.0746 -0.9808 0.1802
vn 0.1464 -0.9239 0.3535
vn 0.1084 -0.9808 0.1622
vn 0.2126 -0.9239 0.3182
vn 0.1379 -0.9808 0.1379
vn 0.2706 -0.9239 0.2706
vn 0.1622 -0.9808 0.1084
vn 0.3182 -0.9239 0.2126
vn 0.1802 -0.9808 0.0747
vn 0.3535 -0.9239 0.1464
vn 0.1913 -0.9808 0.0381
vn 0.3753 -0.9239 0.0747
vn 0.5448 -0.8315 -0.1084
vn 0.5555 -0.8315 -0.0000
vn 0.5132 -0.8315 -0.2126
vn 0.4619 -0.8315 -0.3087
vn 0.3928 -0.8315 -0.3928
vn 0.3086 -0.8315 -0.4619
vn 0.2126 -0.8315 -0.5133
vn 0.1084 -0.8315 -0.5449
vn -0.0000 -0.8315 -0.5556
vn -0.1084 -0.8315 -0.5448
vn -0.2126 -0.8315 -0.5133
vn -0.3087 -0.8315 -0.4619
vn -0.3928 -0.8315 -0.3928
vn -0.4619 -0.8315 -0.3087
vn -0.5133 -0.8315 -0.2126
vn -0.5449 -0.8315 -0.1084
vn -0.5555 -0.8315 -0.0000
vn -0.5448 -0.8315 0.1084
vn -0.5132 -0.8315 0.2126
vn -0.4619 -0.8315 0.3087
vn -0.3928 -0.8315 0.3928
vn -0.3086 -0.8315 0.4619
vn -0.2126 -0.8315 0.5133
vn -0.1084 -0.8315 0.5449
vn -0.0000 -0.8314 0.5556
vn 0.1084 -0.8315 0.5448
vn 0.2126 -0.8315 0.5133
vn 0.3087 -0.8315 0.4619
vn 0.3928 -0.8315 0.3928
vn 0.4619 -0.8315 0.3087
vn 0.5133 -0.8314 0.2126
vn 0.5449 -0.8315 0.1084
vn 0.6935 -0.7071 -0.1379
vn 0.7071 -0.7071 -0.0000
vn 0.6533 -0.7071 -0.2706
vn 0.5879 -0.7071 -0.3928
vn 0.5000 -0.7071 -0.5000
vn 0.3929 -0.7071 -0.5879
vn 0.2706 -0.7071 -0.6533
vn 0.1379 -0.7071 -0.6935
vn -0.0000 -0.7071 -0.7071
vn -0.1379 -0.7071 -0.6935
vn -0.2706 -0.7071 -0.6533
vn -0.3928 -0.7071 -0.5880
vn -0.5000 -0.7071 -0.5000
vn -0.5879 -0.7071 -0.3928
vn -0.6533 -0.7071 -0.2706
vn -0.6935 -0.7071 -0.1379
vn -0.7071 -0.7071 -0.0000
vn -0.6935 -0.7071 0.1379
vn -0.6533 -0.7071 0.2706
vn -0.5880 -0.7071 0.3928
vn -0.5000 -0.7071 0.5000
vn -0.3929 -0.7071 0.5879
vn -0.2706 -0.7071 0.6533
vn -0.1379 -0.7071 0.6935
vn -0.0000 -0.7071 0.7071
vn 0.1379 -0.7071 0.6935
vn 0.2706 -0.7071 0.6533
vn 0.3928 -0.7071 0.5880
vn 0.5000 -0.7071 0.5000
vn 0.5880 -0.7071 0.3928
vn 0.6533 -0.7071 0.2706
vn 0.6935 -0.7071 0.1379
vn 0.8155 -0.5555 -0.1622
vn 0.8315 -0.5555 -0.0000
vn 0.7682 -0.5555 -0.3182
vn 0.6914 -0.5555 -0.4619
vn 0.5879 -0.5556 -0.5879
vn 0.4619 -0.5556 -0.6913
vn 0.3182 -0.5556 -0.7682
vn 0.1622 -0.5556 -0.8155
vn -0.0000 -0.5555 -0.8315
vn -0.1622 -0.5555 -0.8155
vn -0.3182 -0.5556 -0.7682
vn -0.4619 -0.5556 -0.6913
vn -0.5879 -0.5556 -0.5879
vn -0.6913 -0.5556 -0.4619
vn -0.7682 -0.5555 -0.3182
vn -0.8155 -0.5555 -0.1622
vn -0.8315 -0.5555 -0.0000
vn -0.8155 -0.5555 0.1622
vn -0.7682 -0.5555 0.3182
vn -0.6914 -0.5555 0.4619
vn -0.5879 -0.5556 0.5879
vn -0.4619 -0.5556 0.6913
vn -0.3182 -0.5555 0.7682
vn -0.1622 -0.5556 0.8155
vn -0.0000 -0.5555 0.8315
vn 0.1622 -0.5555 0.8155
vn 0.3182 -0.5555 0.7682
vn 0.4619 -0.5556 0.6913
vn 0.5879 -0.5556 0.5879
vn 0.6913 -0.5556 0.4619
vn 0.7682 -0.5555 0.3182
vn 0.8155 -0.5555 0.1622
vn 0.9061 -0.3827 -0.1802
vn 0.9239 -0.3827 -0.0000
vn 0.8535 -0.3827 -0.3536
vn 0.7682 -0.3827 -0.5133
vn 0.6533 -0.3827 -0.6533
vn 0.5133 -0.3827 -0.7682
vn 0.3536 -0.3827 -0.8535
vn 0.1802 -0.3827 -0.9061
vn -0.0000 -0.3827 -0.9239
vn -0.1802 -0.3827 -0.9061
vn -0.3535 -0.3827 -0.8536
vn -0.5133 -0.3827 -0.7682
vn -0.6533 -0.3827 -0.6533
vn -0.7682 -0.3827 -0.5133
vn -0.8535 -0.3827 -0.3536
vn -0.9061 -0.3827 -0.1802
vn -0.9239 -0.3827 -0.0000
vn -0.9061 -0.3827 0.1802
vn -0.8535 -0.3827 0.3536
vn -0.7682 -0.3827 0.5133
vn -0.6533 -0.3827 0.6533
vn -0.5133 -0.3827 0.7682
vn -0.3536 -0.3827 0.8535
vn -0.1802 -0.3827 0.9061
vn -0.0000 -0.3827 0.9239
vn 0.1802 -0.3827 0.9061
vn 0.3535 -0.3827 0.8536
vn 0.5133 -0.3827 0.7682
vn 0.6533 -0.3827 0.6533
vn 0.7682 -0.3827 0.5133
vn 0.8535 -0.3827 0.3536
vn 0.9061 -0.3827 0.1802
vn 0.9619 -0.1951 -0.1913
vn 0.9808 -0.1950 -0.0000
vn 0.9061 -0.1950 -0.3753
vn 0.8155 -0.1951 -0.5449
vn 0.6935 -0.1951 -0.6935
vn 0.5449 -0.1949 -0.8155
vn 0.3753 -0.1951 -0.9061
vn 0.1913 -0.1951 -0.9619
vn -0.0000 -0.1951 -0.9808
vn -0.1913 -0.1951 -0.9619
vn -0.3753 -0.1951 -0.9061
vn -0.5449 -0.1951 -0.8155
vn -0.6935 -0.1951 -0.6935
vn -0.8155 -0.1951 -0.5449
vn -0.9061 -0.1950 -0.3753
vn -0.9620 -0.1950 -0.1913
vn -0.9808 -0.1950 -0.0000
vn -0.9619 -0.1951 0.1913
vn -0.9062 -0.1950 0.3753
vn -0.8155 -0.1950 0.5449
vn -0.6935 -0.1951 0.6935
vn -0.5449 -0.1949 0.8155
vn -0.3753 -0.1951 0.9061
vn -0.1913 -0.1951 0.9619
vn -0.0000 -0.1950 0.9808
vn 0.1913 -0.1951 0.9619
vn 0.3753 -0.1952 0.9061
vn 0.5449 -0.1951 0.8155
vn 0.6935 -0.1950 0.6935
vn 0.8155 -0.1950 0.5449
vn 0.9062 -0.1950 0.3753
vn 0.9619 -0.1951 0.1913
vn 0.9808 -0.0000 -0.1951
vn 1.0000 -0.0000 -0.0000
vn 0.9239 -0.0000 -0.3827
vn 0.8315 -0.0000 -0.5556
vn 0.7071 -0.0000 -0.7071
vn 0.5556 -0.0000 -0.8315
vn 0.3827 -0.0000 -0.9239
vn 0.1951 -0.0000 -0.9808
vn -0.0000 -0.0000 -1.0000
vn -0.1951 -0.0000 -0.9808
vn -0.3827 -0.0000 -0.9239
vn -0.5556 -0.0000 -0.8315
vn -0.7071 -0.0000 -0.7071
vn -0.8315 -0.0000 -0.5556
vn -0.9239 -0.0000 -0.3827
vn -0.9808 -0.0000 -0.1951
vn -1.0000 -0.0000 -0.0000
vn -0.9808 -0.0000 0.1951
vn -0.9239 -0.0000 0.3827
vn -0.8315 -0.0000 0.5556
vn -0.7071 -0.0000 0.7071
vn -0.5556 -0.0000 0.8315
vn -0.3827 -0.0000 0.9239
vn -0.1951 -0.0000 0.9808
vn -0.0000 -0.0000 1.0000
vn 0.1951 -0.0000 0.9808
vn 0.3827 -0.0000 0.9239
vn 0.5556 -0.0000 0.8315
vn 0.7071 -0.0000 0.7071
vn 0.8315 -0.0000 0.5556
vn 0.9239 -0.0000 0.3827
vn 0.9808 -0.0000 0.1951
vn 0.9619 0.1951 -0.1913
vn 0.9808 0.1950 -0.0000
vn 0.9061 0.1951 -0.3753
vn 0.8155 0.1951 -0.5449
vn 0.6935 0.1951 -0.6935
vn 0.5449 0.1951 -0.8155
vn 0.3753 0.1951 -0.9061
vn 0.1913 0.1951 -0.9619
vn -0.0000 0.1951 -0.9808
vn -0.1913 0.1951 -0.9619
vn -0.3753 0.1951 -0.9061
vn -0.5449 0.1950 -0.8155
vn -0.6935 0.1951 -0.6935
vn -0.8155 0.1951 -0.5449
vn -0.9061 0.1951 -0.3753
vn -0.9619 0.1951 -0.1913
vn -0.9808 0.1950 -0.0000
vn -0.9619 0.1952 0.1913
vn -0.9061 0.1951 0.3753
vn -0.8155 0.1951 0.5449
vn -0.6935 0.1951 0.6935
vn -0.5449 0.1951 0.8155
vn -0.3753 0.1951 0.9061
vn -0.1913 0.1951 0.9619
vn -0.0000 0.1950 0.9808
vn 0.1913 0.1951 0.9619
vn 0.3753 0.1951 0.9061
vn 0.5449 0.1951 0.8155
vn 0.6935 0.1951 0.6935
vn 0.8155 0.1950 0.5449
vn 0.9061 0.1951 0.3753
vn 0.9619 0.1951 0.1913
vn 0.9061 0.3827 -0.1802
vn 0.9239 0.3827 -0.0000
vn 0.8535 0.3827 -0.3536
vn 0.7682 0.3827 -0.5133
vn 0.6533 0.3827 -0.6533
vn 0.5133 0.3827 -0.7682
vn 0.3536 0.3827 -0.8535
vn 0.1802 0.3827 -0.9061
vn -0.0000 0.3827 -0.9239
vn -0.1802 0.3827 -0.9061
vn -0.3536 0.3827 -0.8535
vn -0.5133 0.3827 -0.7682
vn -0.6533 0.3827 -0.6533
vn -0.7682 0.3827 -0.5133
vn -0.8535 0.3827 -0.3536
vn -0.9061 0.3827 -0.1802
vn -0.9239 0.3827 -0.0000
vn -0.9061 0.3827 0.1802
vn -0.8535 0.3827 0.3536
vn -0.7682 0.3827 0.5133
vn -0.6533 0.3827 0.6533
vn -0.5133 0.3827 0.7682
vn -0.3536 0.3827 0.8535
vn -0.1802 0.3827 0.9061
vn -0.0000 0.3827 0.9239
vn 0.1802 0.3827 0.9061
vn 0.3536 0.3827 0.8535
vn 0.5133 0.3827 0.7682
vn 0.6533 0.3827 0.6533
vn 0.7682 0.3827 0.5133
vn 0.8535 0.3827 0.3536
vn 0.9061 0.3827 0.1802
vn 0.8155 0.5555 -0.1622
vn 0.8315 0.5555 -0.0000
vn 0.7682 0.5555 -0.3182
vn 0.6913 0.5556 -0.4619
vn 0.5879 0.5556 -0.5879
vn 0.4619 0.5556 -0.6913
vn 0.3182 0.5555 -0.7682
vn 0.1622 0.5556 -0.8155
vn -0.0000 0.5555 -0.8315
vn -0.1622 0.5556 -0.8155
vn -0.3182 0.5556 -0.7682
vn -0.4619 0.5556 -0.6913
vn -0.5879 0.5556 -0.5879
vn -0.6913 0.5556 -0.4619
vn -0.7682 0.5555 -0.3182
vn -0.8155 0.5556 -0.1622
vn -0.8315 0.5555 -0.0000
vn -0.8155 0.5556 0.1622
vn -0.7682 0.5556 0.3182
vn -0.6913 0.5556 0.4619
vn -0.5879 0.5556 0.5879
vn -0.4619 0.5556 0.6913
vn -0.3182 0.5555 0.7682
vn -0.1622 0.5555 0.8155
vn -0.0000 0.5556 0.8315
vn 0.1622 0.5556 0.8155
vn 0.3182 0.5556 0.7682
vn 0.4619 0.5556 0.6913
vn 0.5879 0.5556 0.5879
vn 0.6913 0.5556 0.4619
vn 0.7682 0.5555 0.3182
vn 0.8155 0.5556 0.1622
vn 0.6935 0.7071 -0.1379
vn 0.7071 0.7071 -0.0000
vn 0.6533 0.7071 -0.2706
vn 0.5880 0.7071 -0.3928
vn 0.5000 0.7071 -0.5000
vn 0.3929 0.7071 -0.5879
vn 0.2706 0.7071 -0.6533
vn 0.1379 0.7071 -0.6935
vn -0.0000 0.7071 -0.7071
vn -0.1379 0.7071 -0.6935
vn -0.2706 0.7071 -0.6533
vn -0.3928 0.7071 -0.5880
vn -0.5000 0.7071 -0.5000
vn -0.5879 0.7071 -0.3928
vn -0.6533 0.7071 -0.2706
vn -0.6935 0.7071 -0.1379
vn -0.7071 0.7071 -0.0000
vn -0.6935 0.7071 0.1379
vn -0.6533 0.7071 0.2706
vn -0.5880 0.7071 0.3928
vn -0.5000 0.7071 0.5000
vn -0.3929 0.7071 0.5879
vn -0.2706 0.7071 0.6533
vn -0.1379 0.7071 0.6935
vn -0.0000 0.7071 0.7071
vn 0.1379 0.7071 0.6935
vn 0.2706 0.7071 0.6533
vn 0.3928 0.7071 0.5880
vn 0.5000 0.7071 0.5000
vn 0.5879 0.7071 0.3928
vn 0.6533 0.7071 0.2706
vn 0.6935 0.7071 0.1379
vn 0.5448 0.8315 -0.1084
vn 0.5555 0.8315 -0.0000
vn 0.5132 0.8315 -0.2126
vn 0.4619 0.8315 -0.3087
vn 0.3928 0.8315 -0.3928
vn 0.3087 0.8315 -0.4619
vn 0.2126 0.8315 -0.5132
vn 0.1084 0.8315 -0.5449
vn -0.0000 0.8314 -0.5556
vn -0.1084 0.8315 -0.5449
vn -0.2126 0.8315 -0.5133
vn -0.3087 0.8315 -0.4619
vn -0.3928 0.8315 -0.3928
vn -0.4619 0.8315 -0.3087
vn -0.5132 0.8315 -0.2126
vn -0.5448 0.8315 -0.1084
vn -0.5555 0.8315 -0.0000
vn -0.5448 0.8315 0.1084
vn -0.5132 0.8315 0.2126
vn -0.4619 0.8315 0.3087
vn -0.3928 0.8315 0.3928
vn -0.3087 0.8315 0.4619
vn -0.2126 0.8315 0.5132
vn -0.1084 0.8315 0.5449
vn -0.0000 0.8315 0.5556
vn 0.1084 0.8315 0.5449
vn 0.2126 0.8315 0.5133
vn 0.3087 0.8315 0.4619
vn 0.3928 0.8315 0.3928
vn 0.4619 0.8315 0.3087
vn 0.5132 0.8315 0.2126
vn 0.5448 0.8315 0.1084
vn 0.3753 0.9239 -0.0747
vn 0.3827 0.9239 -0.0000
vn 0.3535 0.9239 -0.1464
vn 0.3182 0.9239 -0.2126
vn 0.2706 0.9239 -0.2706
vn 0.2126 0.9239 -0.3182
vn 0.1464 0.9239 -0.3535
vn 0.0746 0.9239 -0.3753
vn -0.0000 0.9239 -0.3827
vn -0.0747 0.9239 -0.3753
vn -0.1464 0.9239 -0.3535
vn -0.2126 0.9239 -0.3182
vn -0.2706 0.9239 -0.2706
vn -0.3182 0.9239 -0.2126
vn -0.3535 0.9239 -0.1464
vn -0.3753 0.9239 -0.0746
vn -0.3827 0.9239 -0.0000
vn -0.3753 0.9239 0.0747
vn -0.3535 0.9239 0.1464
vn -0.3182 0.9239 0.2126
vn -0.2706 0.9239 0.2706
vn -0.2126 0.9239 0.3182
vn -0.1464 0.9239 0.3535
vn -0.0746 0.9239 0.3753
vn -0.0000 0.9239 0.3827
vn 0.0747 0.9239 0.3753
vn 0.1464 0.9239 0.3535
vn 0.2126 0.9239 0.3182
vn 0.2706 0.9239 0.2706
vn 0.3182 0.9239 0.2126
vn 0.3535 0.9239 0.1464
vn 0.3753 0.9239 0.0746
vn 0.1913 0.9808 -0.0381
vn 0.1951 0.9808 -0.0000
vn 0.1802 0.9808 -0.0746
vn 0.1622 0.9808 -0.1084
vn 0.1380 0.9808 -0.1380
vn 0.1084 0.9808 -0.1622
vn 0.0747 0.9808 -0.1802
vn 0.0381 0.9808 -0.1913
vn -0.0000 0.9808 -0.1951
vn -0.0381 0.9808 -0.1913
vn -0.0747 0.9808 -0.1802
vn -0.1084 0.9808 -0.1622
vn -0.1379 0.9808 -0.1379
vn -0.1622 0.9808 -0.1084
vn -0.1802 0.9808 -0.0747
vn -0.1913 0.9808 -0.0381
vn -0.1951 0.9808 -0.0000
vn -0.1913 0.9808 0.0381
vn -0.1802 0.9808 0.0746
vn -0.1622 0.9808 0.1084
vn -0.1380 0.9808 0.1380
vn -0.1084 0.9808 0.1622
vn -0.0747 0.9808 0.1802
vn -0.0381 0.9808 0.1913
vn -0.0000 0.9808 0.1951
vn 0.0381 0.9808 0.1913
vn 0.0746 0.9808 0.1802
vn 0.1084 0.9808 0.1622
vn 0.1379 0.9808 0.1379
vn 0.1622 0.9808 0.1084
vn 0.1802 0.9808 0.0747
vn 0.1913 0.9808 0.0381
vn -0.0000 -1.0000 -0.0000
vn -0.0000 1.0000 -0.0000
vt 0.779920 0.140565
vt 0.779920 0.201786
vt 0.749191 0.201786
vt 0.749191 0.140565
vt 0.810650 0.140565
vt 0.810650 0.201786
vt 0.841379 0.140565
vt 0.841379 0.201786
vt 0.872108 0.140565
vt 0.872108 0.201786
vt 0.902837 0.140565
vt 0.902837 0.201786
vt 0.933566 0.140565
vt 0.933566 0.201786
vt 0.964296 0.140565
vt 0.964296 0.201786
vt 0.995025 0.140565
vt 0.995025 0.201786
vt 0.032399 0.140565
vt 0.032399 0.201786
vt 0.001670 0.201786
vt 0.001670 0.140565
vt 0.063128 0.140565
vt 0.063128 0.201786
vt 0.093858 0.140565
vt 0.093858 0.201786
vt 0.124587 0.140565
vt 0.124587 0.201786
vt 0.155316 0.140565
vt 0.155316 0.201786
vt 0.186045 0.140565
vt 0.186045 0.201786
vt 0.216774 0.140565
vt 0.216774 0.201786
vt 0.247504 0.140565
vt 0.247504 0.201786
vt 0.278233 0.140565
vt 0.278233 0.201786
vt 0.308962 0.140565
vt 0.308962 0.201786
vt 0.339691 0.140565
vt 0.339691 0.201786
vt 0.370420 0.140565
vt 0.370420 0.201786
vt 0.401150 0.140565
vt 0.401150 0.201786
vt 0.431879 0.140565
vt 0.431879 0.201786
vt 0.462608 0.140565
vt 0.462608 0.201786
vt 0.493337 0.140565
vt 0.493337 0.201786
vt 0.534087 0.140565
vt 0.534087 0.201786
vt 0.503358 0.201786
vt 0.503358 0.140565
vt 0.564816 0.140565
vt 0.564816 0.201786
vt 0.595545 0.140565
vt 0.595545 0.201786
vt 0.626274 0.140565
vt 0.626274 0.201786
vt 0.657004 0.140565
vt 0.657004 0.201786
vt 0.687733 0.140565
vt 0.687733 0.201786
vt 0.718462 0.140565
vt 0.718462 0.201786
vt 0.779920 0.263007
vt 0.749191 0.263007
vt 0.810650 0.263007
vt 0.841379 0.263007
vt 0.872108 0.263007
vt 0.902837 0.263007
vt 0.933566 0.263007
vt 0.964296 0.263007
vt 0.995025 0.263007
vt 0.032399 0.263007
vt 0.001670 0.263007
vt 0.063128 0.263007
vt 0.093858 0.263007
vt 0.124587 0.263007
vt 0.155316 0.263007
vt 0.186045 0.263007
vt 0.216774 0.263007
vt 0.247504 0.263007
vt 0.278233 0.263007
vt 0.308962 0.263007
vt 0.339691 0.263007
vt 0.370420 0.263007
vt 0.401150 0.263007
vt 0.431879 0.263007
vt 0.462608 0.263007
vt 0.493337 0.263007
vt 0.534087 0.263007
vt 0.503358 0.263007
vt 0.564816 0.263007
vt 0.595545 0.263007
vt 0.626274 0.263007
vt 0.657004 0.263007
vt 0.687733 0.263007
vt 0.718462 0.263007
vt 0.779920 0.324228
vt 0.749191 0.324228
vt 0.810650 0.324228
vt 0.841379 0.324228
vt 0.872108 0.324228
vt 0.902837 0.324228
vt 0.933566 0.324228
vt 0.964296 0.324228
vt 0.995025 0.324228
vt 0.032399 0.324228
vt 0.001670 0.324228
vt 0.063128 0.324228
vt 0.093858 0.324228
vt 0.124587 0.324228
vt 0.155316 0.324228
vt 0.186045 0.324228
vt 0.216774 0.324228
vt 0.247504 0.324228
vt 0.278233 0.324228
vt 0.308962 0.324228
vt 0.339691 0.324228
vt 0.370420 0.324228
vt 0.401150 0.324228
vt 0.431879 0.324228
vt 0.462608 0.324228
vt 0.493337 0.324228
vt 0.534087 0.324228
vt 0.503358 0.324228
vt 0.564816 0.324228
vt 0.595545 0.324228
vt 0.626274 0.324228
vt 0.657004 0.324228
vt 0.687733 0.324228
vt 0.718462 0.324228
vt 0.779920 0.385449
vt 0.749191 0.385449
vt 0.810650 0.385449
vt 0.841379 0.385449
vt 0.872108 0.385449
vt 0.902837 0.385449
vt 0.933566 0.385449
vt 0.964296 0.385449
vt 0.995025 0.385449
vt 0.032399 0.385449
vt 0.001670 0.385449
vt 0.063128 0.385449
vt 0.093858 0.385449
vt 0.124587 0.385449
vt 0.155316 0.385449
vt 0.186045 0.385449
vt 0.216774 0.385449
vt 0.247504 0.385449
vt 0.278233 0.385449
vt 0.308962 0.385449
vt 0.339691 0.385449
vt 0.370420 0.385449
vt 0.401150 0.385449
vt 0.431879 0.385449
vt 0.462608 0.385449
vt 0.493337 0.385449
vt 0.534087 0.385449
vt 0.503358 0.385449
vt 0.564816 0.385449
vt 0.595545 0.385449
vt 0.626274 0.385449
vt 0.657004 0.385449
vt 0.687733 0.385449
vt 0.718462 0.385449
vt 0.779920 0.446670
vt 0.749191 0.446670
vt 0.810650 0.446670
vt 0.841379 0.446670
vt 0.872108 0.446670
vt 0.902837 0.446670
vt 0.933566 0.446670
vt 0.964296 0.446670
vt 0.995025 0.446670
vt 0.032399 0.446670
vt 0.001670 0.446670
vt 0.063128 0.446670
vt 0.093858 0.446670
vt 0.124587 0.446670
vt 0.155316 0.446670
vt 0.186045 0.446670
vt 0.216774 0.446670
vt 0.247504 0.446670
vt 0.278233 0.446670
vt 0.308962 0.446670
vt 0.339691 0.446670
vt 0.370420 0.446670
vt 0.401150 0.446670
vt 0.431879 0.446670
vt 0.462608 0.446670
vt 0.493337 0.446670
vt 0.534087 0.446670
vt 0.503358 0.446670
vt 0.564816 0.446670
vt 0.595545 0.446670
vt 0.626274 0.446670
vt 0.657004 0.446670
vt 0.687733 0.446670
vt 0.718462 0.446670
vt 0.779920 0.507892
vt 0.749191 0.507892
vt 0.810650 0.507892
vt 0.841379 0.507892
vt 0.872108 0.507892
vt 0.902837 0.507892
vt 0.933566 0.507892
vt 0.964296 0.507892
vt 0.995025 0.507892
vt 0.032399 0.507892
vt 0.001670 0.507892
vt 0.063128 0.507892
vt 0.093858 0.507892
vt 0.124587 0.507892
vt 0.155316 0.507892
vt 0.186045 0.507892
vt 0.216774 0.507892
vt 0.247504 0.507892
vt 0.278233 0.507892
vt 0.308962 0.507892
vt 0.339691 0.507892
vt 0.370420 0.507892
vt 0.401150 0.507892
vt 0.431879 0.507892
vt 0.462608 0.507892
vt 0.493337 0.507892
vt 0.534087 0.507892
vt 0.503358 0.507892
vt 0.564816 0.507892
vt 0.595545 0.507892
vt 0.626274 0.507892
vt 0.657004 0.507892
vt 0.687733 0.507892
vt 0.718462 0.507892
vt 0.779920 0.569113
vt 0.749191 0.569113
vt 0.810650 0.569113
vt 0.841379 0.569113
vt 0.872108 0.569113
vt 0.902837 0.569113
vt 0.933566 0.569113
vt 0.964296 0.569113
vt 0.995025 0.569113
vt 0.032399 0.569113
vt 0.001670 0.569113
vt 0.063128 0.569113
vt 0.093858 0.569113
vt 0.124587 0.569113
vt 0.155316 0.569113
vt 0.186045 0.569113
vt 0.216774 0.569113
vt 0.247504 0.569113
vt 0.278233 0.569113
vt 0.308962 0.569113
vt 0.339691 0.569113
vt 0.370420 0.569113
vt 0.401150 0.569113
vt 0.431879 0.569113
vt 0.462608 0.569113
vt 0.493337 0.569113
vt 0.534087 0.569113
vt 0.503358 0.569113
vt 0.564816 0.569113
vt 0.595545 0.569113
vt 0.626274 0.569113
vt 0.657004 0.569113
vt 0.687733 0.569113
vt 0.718462 0.569113
vt 0.779920 0.630334
vt 0.749191 0.630334
vt 0.810650 0.630334
vt 0.841379 0.630334
vt 0.872108 0.630334
vt 0.902837 0.630334
vt 0.933566 0.630334
vt 0.964296 0.630334
vt 0.995025 0.630334
vt 0.032399 0.630334
vt 0.001670 0.630334
vt 0.063128 0.630334
vt 0.093858 0.630334
vt 0.124587 0.630334
vt 0.155316 0.630334
vt 0.186045 0.630334
vt 0.216774 0.630334
vt 0.247504 0.630334
vt 0.278233 0.630334
vt 0.308962 0.630334
vt 0.339691 0.630334
vt 0.370420 0.630334
vt 0.401150 0.630334
vt 0.431879 0.630334
vt 0.462608 0.630334
vt 0.493337 0.630334
vt 0.534087 0.630334
vt 0.503358 0.630334
vt 0.564816 0.630334
vt 0.595545 0.630334
vt 0.626274 0.630334
vt 0.657004 0.630334
vt 0.687733 0.630334
vt 0.718462 0.630334
vt 0.779920 0.691555
vt 0.749191 0.691555
vt 0.810650 0.691555
vt 0.841379 0.691555
vt 0.872108 0.691555
vt 0.902837 0.691555
vt 0.933566 0.691555
vt 0.964296 0.691555
vt 0.995025 0.691555
vt 0.032399 0.691555
vt 0.001670 0.691555
vt 0.063128 0.691555
vt 0.093858 0.691555
vt 0.124587 0.691555
vt 0.155316 0.691555
vt 0.186045 0.691555
vt 0.216774 0.691555
vt 0.247504 0.691555
vt 0.278233 0.691555
vt 0.308962 0.691555
vt 0.339691 0.691555
vt 0.370420 0.691555
vt 0.401150 0.691555
vt 0.431879 0.691555
vt 0.462608 0.691555
vt 0.493337 0.691555
vt 0.534087 0.691555
vt 0.503358 0.691555
vt 0.564816 0.691555
vt 0.595545 0.691555
vt 0.626274 0.691555
vt 0.657004 0.691555
vt 0.687733 0.691555
vt 0.718462 0.691555
vt 0.779920 0.752776
vt 0.749191 0.752776
vt 0.810650 0.752776
vt 0.841379 0.752776
vt 0.872108 0.752776
vt 0.902837 0.752776
vt 0.933566 0.752776
vt 0.964296 0.752776
vt 0.995025 0.752776
vt 0.032399 0.752776
vt 0.001670 0.752776
vt 0.063128 0.752776
vt 0.093858 0.752776
vt 0.124587 0.752776
vt 0.155316 0.752776
vt 0.186045 0.752776
vt 0.216774 0.752776
vt 0.247504 0.752776
vt 0.278233 0.752776
vt 0.308962 0.752776
vt 0.339691 0.752776
vt 0.370420 0.752776
vt 0.401150 0.752776
vt 0.431879 0.752776
vt 0.462608 0.752776
vt 0.493337 0.752776
vt 0.534087 0.752776
vt 0.503358 0.752776
vt 0.564816 0.752776
vt 0.595545 0.752776
vt 0.626274 0.752776
vt 0.657004 0.752776
vt 0.687733 0.752776
vt 0.718462 0.752776
vt 0.779920 0.813997
vt 0.749191 0.813997
vt 0.810650 0.813997
vt 0.841379 0.813997
vt 0.872108 0.813997
vt 0.902837 0.813997
vt 0.933566 0.813997
vt 0.964296 0.813997
vt 0.995025 0.813997
vt 0.032399 0.813997
vt 0.001670 0.813997
vt 0.063128 0.813997
vt 0.093858 0.813997
vt 0.124587 0.813997
vt 0.155316 0.813997
vt 0.186045 0.813997
vt 0.216774 0.813997
vt 0.247504 0.813997
vt 0.278233 0.813997
vt 0.308962 0.813997
vt 0.339691 0.813997
vt 0.370420 0.813997
vt 0.401150 0.813997
vt 0.431879 0.813997
vt 0.462608 0.813997
vt 0.493337 0.813997
vt 0.534087 0.813997
vt 0.503358 0.813997
vt 0.564816 0.813997
vt 0.595545 0.813997
vt 0.626274 0.813997
vt 0.657004 0.813997
vt 0.687733 0.813997
vt 0.718462 0.813997
vt 0.779920 0.875218
vt 0.749191 0.875218
vt 0.810650 0.875218
vt 0.841379 0.875218
vt 0.872108 0.875218
vt 0.902837 0.875218
vt 0.933566 0.875218
vt 0.964296 0.875218
vt 0.995025 0.875218
vt 0.032399 0.875218
vt 0.001670 0.875218
vt 0.063128 0.875218
vt 0.093858 0.875218
vt 0.124587 0.875218
vt 0.155316 0.875218
vt 0.186045 0.875218
vt 0.216774 0.875218
vt 0.247504 0.875218
vt 0.278233 0.875218
vt 0.308962 0.875218
vt 0.339691 0.875218
vt 0.370420 0.875218
vt 0.401150 0.875218
vt 0.431879 0.875218
vt 0.462608 0.875218
vt 0.493337 0.875218
vt 0.534087 0.875218
vt 0.503358 0.875218
vt 0.564816 0.875218
vt 0.595545 0.875218
vt 0.626274 0.875218
vt 0.657004 0.875218
vt 0.687733 0.875218
vt 0.718462 0.875218
vt 0.779920 0.936439
vt 0.749191 0.936439
vt 0.810650 0.936439
vt 0.841379 0.936439
vt 0.872108 0.936439
vt 0.902837 0.936439
vt 0.933566 0.936439
vt 0.964296 0.936439
vt 0.995025 0.936439
vt 0.032399 0.936439
vt 0.001670 0.936439
vt 0.063128 0.936439
vt 0.093858 0.936439
vt 0.124587 0.936439
vt 0.155316 0.936439
vt 0.186045 0.936439
vt 0.216774 0.936439
vt 0.247504 0.936439
vt 0.278233 0.936439
vt 0.308962 0.936439
vt 0.339691 0.936439
vt 0.370420 0.936439
vt 0.401150 0.936439
vt 0.431879 0.936439
vt 0.462608 0.936439
vt 0.493337 0.936439
vt 0.534087 0.936439
vt 0.503358 0.936439
vt 0.564816 0.936439
vt 0.595545 0.936439
vt 0.626274 0.936439
vt 0.657004 0.936439
vt 0.687733 0.936439
vt 0.718462 0.936439
vt 0.779920 0.997660
vt 0.749191 0.997660
vt 0.810650 0.997660
vt 0.841379 0.997660
vt 0.872108 0.997660
vt 0.902837 0.997660
vt 0.933566 0.997660
vt 0.964296 0.997660
vt 0.995025 0.997660
vt 0.032399 0.997660
vt 0.001670 0.997660
vt 0.063128 0.997660
vt 0.093858 0.997660
vt 0.124587 0.997660
vt 0.155316 0.997660
vt 0.186045 0.997660
vt 0.216774 0.997660
vt 0.247504 0.997660
vt 0.278233 0.997660
vt 0.308962 0.997660
vt 0.339691 0.997660
vt 0.370420 0.997660
vt 0.401150 0.997660
vt 0.431879 0.997660
vt 0.462608 0.997660
vt 0.493337 0.997660
vt 0.534087 0.997660
vt 0.503358 0.997660
vt 0.564816 0.997660
vt 0.595545 0.997660
vt 0.626274 0.997660
vt 0.657004 0.997660
vt 0.687733 0.997660
vt 0.718462 0.997660
vt 0.036585 0.006143
vt 0.045048 0.004975
vt 0.045048 0.065750
vt 0.141824 0.065750
vt 0.099280 0.053894
vt 0.101748 0.042493
vt 0.028448 0.009601
vt 0.105757 0.031986
vt 0.020948 0.015218
vt 0.111151 0.022776
vt 0.014375 0.022776
vt 0.117725 0.015218
vt 0.008981 0.031986
vt 0.125224 0.009601
vt 0.004972 0.042493
vt 0.133361 0.006143
vt 0.002504 0.053894
vt 0.141824 0.004975
vt 0.001670 0.065750
vt 0.150287 0.006143
vt 0.002504 0.077607
vt 0.158424 0.009601
vt 0.004972 0.089008
vt 0.165923 0.015218
vt 0.008981 0.099515
vt 0.172497 0.022776
vt 0.014375 0.108725
vt 0.177891 0.031986
vt 0.020948 0.116283
vt 0.181900 0.042493
vt 0.028448 0.121900
vt 0.184368 0.053894
vt 0.036585 0.125358
vt 0.185202 0.065750
vt 0.045048 0.126526
vt 0.184368 0.077607
vt 0.053511 0.125358
vt 0.181900 0.089008
vt 0.061648 0.121900
vt 0.177891 0.099515
vt 0.069147 0.116283
vt 0.172497 0.108725
vt 0.075721 0.108725
vt 0.165923 0.116283
vt 0.081115 0.099515
vt 0.158424 0.121900
vt 0.085124 0.089008
vt 0.150287 0.125358
vt 0.087592 0.077607
vt 0.141824 0.126526
vt 0.088426 0.065750
vt 0.133361 0.125358
vt 0.087592 0.053894
vt 0.125224 0.121900
vt 0.085124 0.042493
vt 0.117725 0.116283
vt 0.081115 0.031986
vt 0.111151 0.108725
vt 0.075721 0.022776
vt 0.105757 0.099515
vt 0.069147 0.015218
vt 0.101748 0.089008
vt 0.061648 0.009601
vt 0.099280 0.077607
vt 0.053511 0.006143
vt 0.098446 0.065750
s 1
usemtl Material.008
f 4/1/1 36/2/2 35/3/3 3/4/4
f 5/5/5 37/6/6 36/2/2 4/1/1
f 6/7/7 38/8/8 37/6/6 5/5/5
f 7/9/9 39/10/10 38/8/8 6/7/7
f 8/11/11 40/12/12 39/10/10 7/9/9
f 9/13/13 41/14/14 40/12/12 8/11/11
f 10/15/15 42/16/16 41/14/14 9/13/13
f 11/17/17 43/18/18 42/16/16 10/15/15
f 12/19/19 44/20/20 43/21/18 11/22/17
f 13/23/21 45/24/22 44/20/20 12/19/19
f 14/25/23 46/26/24 45/24/22 13/23/21
f 15/27/25 47/28/26 46/26/24 14/25/23
f 16/29/27 48/30/28 47/28/26 15/27/25
f 17/31/29 49/32/30 48/30/28 16/29/27
f 18/33/31 50/34/32 49/32/30 17/31/29
f 19/35/33 51/36/34 50/34/32 18/33/31
f 20/37/35 52/38/36 51/36/34 19/35/33
f 21/39/37 53/40/38 52/38/36 20/37/35
f 22/41/39 54/42/40 53/40/38 21/39/37
f 23/43/41 55/44/42 54/42/40 22/41/39
f 24/45/43 56/46/44 55/44/42 23/43/41
f 25/47/45 57/48/46 56/46/44 24/45/43
f 26/49/47 58/50/48 57/48/46 25/47/45
f 27/51/49 59/52/50 58/50/48 26/49/47
f 28/53/51 60/54/52 59/55/50 27/56/49
f 29/57/53 61/58/54 60/54/52 28/53/51
f 30/59/55 62/60/56 61/58/54 29/57/53
f 31/61/57 63/62/58 62/60/56 30/59/55
f 32/63/59 64/64/60 63/62/58 31/61/57
f 33/65/61 65/66/62 64/64/60 32/63/59
f 34/67/63 66/68/64 65/66/62 33/65/61
f 3/4/4 35/3/3 66/68/64 34/67/63
f 36/2/2 68/69/65 67/70/66 35/3/3
f 37/6/6 69/71/67 68/69/65 36/2/2
f 38/8/8 70/72/68 69/71/67 37/6/6
f 39/10/10 71/73/69 70/72/68 38/8/8
f 40/12/12 72/74/70 71/73/69 39/10/10
f 41/14/14 73/75/71 72/74/70 40/12/12
f 42/16/16 74/76/72 73/75/71 41/14/14
f 43/18/18 75/77/73 74/76/72 42/16/16
f 44/20/20 76/78/74 75/79/73 43/21/18
f 45/24/22 77/80/75 76/78/74 44/20/20
f 46/26/24 78/81/76 77/80/75 45/24/22
f 47/28/26 79/82/77 78/81/76 46/26/24
f 48/30/28 80/83/78 79/82/77 47/28/26
f 49/32/30 81/84/79 80/83/78 48/30/28
f 50/34/32 82/85/80 81/84/79 49/32/30
f 51/36/34 83/86/81 82/85/80 50/34/32
f 52/38/36 84/87/82 83/86/81 51/36/34
f 53/40/38 85/88/83 84/87/82 52/38/36
f 54/42/40 86/89/84 85/88/83 53/40/38
f 55/44/42 87/90/85 86/89/84 54/42/40
f 56/46/44 88/91/86 87/90/85 55/44/42
f 57/48/46 89/92/87 88/91/86 56/46/44
f 58/50/48 90/93/88 89/92/87 57/48/46
f 59/52/50 91/94/89 90/93/88 58/50/48
f 60/54/52 92/95/90 91/96/89 59/55/50
f 61/58/54 93/97/91 92/95/90 60/54/52
f 62/60/56 94/98/92 93/97/91 61/58/54
f 63/62/58 95/99/93 94/98/92 62/60/56
f 64/64/60 96/100/94 95/99/93 63/62/58
f 65/66/62 97/101/95 96/100/94 64/64/60
f 66/68/64 98/102/96 97/101/95 65/66/62
f 35/3/3 67/70/66 98/102/96 66/68/64
f 68/69/65 100/103/97 99/104/98 67/70/66
f 69/71/67 101/105/99 100/103/97 68/69/65
f 70/72/68 102/106/100 101/105/99 69/71/67
f 71/73/69 103/107/101 102/106/100 70/72/68
f 72/74/70 104/108/102 103/107/101 71/73/69
f 73/75/71 105/109/103 104/108/102 72/74/70
f 74/76/72 106/110/104 105/109/103 73/75/71
f 75/77/73 107/111/105 106/110/104 74/76/72
f 76/78/74 108/112/106 107/113/105 75/79/73
f 77/80/75 109/114/107 108/112/106 76/78/74
f 78/81/76 110/115/108 109/114/107 77/80/75
f 79/82/77 111/116/109 110/115/108 78/81/76
f 80/83/78 112/117/110 111/116/109 79/82/77
f 81/84/79 113/118/111 112/117/110 80/83/78
f 82/85/80 114/119/112 113/118/111 81/84/79
f 83/86/81 115/120/113 114/119/112 82/85/80
f 84/87/82 116/121/114 115/120/113 83/86/81
f 85/88/83 117/122/115 116/121/114 84/87/82
f 86/89/84 118/123/116 117/122/115 85/88/83
f 87/90/85 119/124/117 118/123/116 86/89/84
f 88/91/86 120/125/118 119/124/117 87/90/85
f 89/92/87 121/126/119 120/125/118 88/91/86
f 90/93/88 122/127/120 121/126/119 89/92/87
f 91/94/89 123/128/121 122/127/120 90/93/88
f 92/95/90 124/129/122 123/130/121 91/96/89
f 93/97/91 125/131/123 124/129/122 92/95/90
f 94/98/92 126/132/124 125/131/123 93/97/91
f 95/99/93 127/133/125 126/132/124 94/98/92
f 96/100/94 128/134/126 127/133/125 95/99/93
f 97/101/95 129/135/127 128/134/126 96/100/94
f 98/102/96 130/136/128 129/135/127 97/101/95
f 67/70/66 99/104/98 130/136/128 98/102/96
f 100/103/97 132/137/129 131/138/130 99/104/98
f 101/105/99 133/139/131 132/137/129 100/103/97
f 102/106/100 134/140/132 133/139/131 101/105/99
f 103/107/101 135/141/133 134/140/132 102/106/100
f 104/108/102 136/142/134 135/141/133 103/107/101
f 105/109/103 137/143/135 136/142/134 104/108/102
f 106/110/104 138/144/136 137/143/135 105/109/103
f 107/111/105 139/145/137 138/144/136 106/110/104
f 108/112/106 140/146/138 139/147/137 107/113/105
f 109/114/107 141/148/139 140/146/138 108/112/106
f 110/115/108 142/149/140 141/148/139 109/114/107
f 111/116/109 143/150/141 142/149/140 110/115/108
f 112/117/110 144/151/142 143/150/141 111/116/109
f 113/118/111 145/152/143 144/151/142 112/117/110
f 114/119/112 146/153/144 145/152/143 113/118/111
f 115/120/113 147/154/145 146/153/144 114/119/112
f 116/121/114 148/155/146 147/154/145 115/120/113
f 117/122/115 149/156/147 148/155/146 116/121/114
f 118/123/116 150/157/148 149/156/147 117/122/115
f 119/124/117 151/158/149 150/157/148 118/123/116
f 120/125/118 152/159/150 151/158/149 119/124/117
f 121/126/119 153/160/151 152/159/150 120/125/118
f 122/127/120 154/161/152 153/160/151 121/126/119
f 123/128/121 155/162/153 154/161/152 122/127/120
f 124/129/122 156/163/154 155/164/153 123/130/121
f 125/131/123 157/165/155 156/163/154 124/129/122
f 126/132/124 158/166/156 157/165/155 125/131/123
f 127/133/125 159/167/157 158/166/156 126/132/124
f 128/134/126 160/168/158 159/167/157 127/133/125
f 129/135/127 161/169/159 160/168/158 128/134/126
f 130/136/128 162/170/160 161/169/159 129/135/127
f 99/104/98 131/138/130 162/170/160 130/136/128
f 132/137/129 164/171/161 163/172/162 131/138/130
f 133/139/131 165/173/163 164/171/161 132/137/129
f 134/140/132 166/174/164 165/173/163 133/139/131
f 135/141/133 167/175/165 166/174/164 134/140/132
f 136/142/134 168/176/166 167/175/165 135/141/133
f 137/143/135 169/177/167 168/176/166 136/142/134
f 138/144/136 170/178/168 169/177/167 137/143/135
f 139/145/137 171/179/169 170/178/168 138/144/136
f 140/146/138 172/180/170 171/181/169 139/147/137
f 141/148/139 173/182/171 172/180/170 140/146/138
f 142/149/140 174/183/172 173/182/171 141/148/139
f 143/150/141 175/184/173 174/183/172 142/149/140
f 144/151/142 176/185/174 175/184/173 143/150/141
f 145/152/143 177/186/175 176/185/174 144/151/142
f 146/153/144 178/187/176 177/186/175 145/152/143
f 147/154/145 179/188/177 178/187/176 146/153/144
f 148/155/146 180/189/178 179/188/177 147/154/145
f 149/156/147 181/190/179 180/189/178 148/155/146
f 150/157/148 182/191/180 181/190/179 149/156/147
f 151/158/149 183/192/181 182/191/180 150/157/148
f 152/159/150 184/193/182 183/192/181 151/158/149
f 153/160/151 185/194/183 184/193/182 152/159/150
f 154/161/152 186/195/184 185/194/183 153/160/151
f 155/162/153 187/196/185 186/195/184 154/161/152
f 156/163/154 188/197/186 187/198/185 155/164/153
f 157/165/155 189/199/187 188/197/186 156/163/154
f 158/166/156 190/200/188 189/199/187 157/165/155
f 159/167/157 191/201/189 190/200/188 158/166/156
f 160/168/158 192/202/190 191/201/189 159/167/157
f 161/169/159 193/203/191 192/202/190 160/168/158
f 162/170/160 194/204/192 193/203/191 161/169/159
f 131/138/130 163/172/162 194/204/192 162/170/160
f 164/171/161 196/205/193 195/206/194 163/172/162
f 165/173/163 197/207/195 196/205/193 164/171/161
f 166/174/164 198/208/196 197/207/195 165/173/163
f 167/175/165 199/209/197 198/208/196 166/174/164
f 168/176/166 200/210/198 199/209/197 167/175/165
f 169/177/167 201/211/199 200/210/198 168/176/166
f 170/178/168 202/212/200 201/211/199 169/177/167
f 171/179/169 203/213/201 202/212/200 170/178/168
f 172/180/170 204/214/202 203/215/201 171/181/169
f 173/182/171 205/216/203 204/214/202 172/180/170
f 174/183/172 206/217/204 205/216/203 173/182/171
f 175/184/173 207/218/205 206/217/204 174/183/172
f 176/185/174 208/219/206 207/218/205 175/184/173
f 177/186/175 209/220/207 208/219/206 176/185/174
f 178/187/176 210/221/208 209/220/207 177/186/175
f 179/188/177 211/222/209 210/221/208 178/187/176
f 180/189/178 212/223/210 211/222/209 179/188/177
f 181/190/179 213/224/211 212/223/210 180/189/178
f 182/191/180 214/225/212 213/224/211 181/190/179
f 183/192/181 215/226/213 214/225/212 182/191/180
f 184/193/182 216/227/214 215/226/213 183/192/181
f 185/194/183 217/228/215 216/227/214 184/193/182
f 186/195/184 218/229/216 217/228/215 185/194/183
f 187/196/185 219/230/217 218/229/216 186/195/184
f 188/197/186 220/231/218 219/232/217 187/198/185
f 189/199/187 221/233/219 220/231/218 188/197/186
f 190/200/188 222/234/220 221/233/219 189/199/187
f 191/201/189 223/235/221 222/234/220 190/200/188
f 192/202/190 224/236/222 223/235/221 191/201/189
f 193/203/191 225/237/223 224/236/222 192/202/190
f 194/204/192 226/238/224 225/237/223 193/203/191
f 163/172/162 195/206/194 226/238/224 194/204/192
f 196/205/193 228/239/225 227/240/226 195/206/194
f 197/207/195 229/241/227 228/239/225 196/205/193
f 198/208/196 230/242/228 229/241/227 197/207/195
f 199/209/197 231/243/229 230/242/228 198/208/196
f 200/210/198 232/244/230 231/243/229 199/209/197
f 201/211/199 233/245/231 232/244/230 200/210/198
f 202/212/200 234/246/232 233/245/231 201/211/199
f 203/213/201 235/247/233 234/246/232 202/212/200
f 204/214/202 236/248/234 235/249/233 203/215/201
f 205/216/203 237/250/235 236/248/234 204/214/202
f 206/217/204 238/251/236 237/250/235 205/216/203
f 207/218/205 239/252/237 238/251/236 206/217/204
f 208/219/206 240/253/238 239/252/237 207/218/205
f 209/220/207 241/254/239 240/253/238 208/219/206
f 210/221/208 242/255/240 241/254/239 209/220/207
f 211/222/209 243/256/241 242/255/240 210/221/208
f 212/223/210 244/257/242 243/256/241 211/222/209
f 213/224/211 245/258/243 244/257/242 212/223/210
f 214/225/212 246/259/244 245/258/243 213/224/211
f 215/226/213 247/260/245 246/259/244 214/225/212
f 216/227/214 248/261/246 247/260/245 215/226/213
f 217/228/215 249/262/247 248/261/246 216/227/214
f 218/229/216 250/263/248 249/262/247 217/228/215
f 219/230/217 251/264/249 250/263/248 218/229/216
f 220/231/218 252/265/250 251/266/249 219/232/217
f 221/233/219 253/267/251 252/265/250 220/231/218
f 222/234/220 254/268/252 253/267/251 221/233/219
f 223/235/221 255/269/253 254/268/252 222/234/220
f 224/236/222 256/270/254 255/269/253 223/235/221
f 225/237/223 257/271/255 256/270/254 224/236/222
f 226/238/224 258/272/256 257/271/255 225/237/223
f 195/206/194 227/240/226 258/272/256 226/238/224
f 228/239/225 260/273/257 259/274/258 227/240/226
f 229/241/227 261/275/259 260/273/257 228/239/225
f 230/242/228 262/276/260 261/275/259 229/241/227
f 231/243/229 263/277/261 262/276/260 230/242/228
f 232/244/230 264/278/262 263/277/261 231/243/229
f 233/245/231 265/279/263 264/278/262 232/244/230
f 234/246/232 266/280/264 265/279/263 233/245/231
f 235/247/233 267/281/265 266/280/264 234/246/232
f 236/248/234 268/282/266 267/283/265 235/249/233
f 237/250/235 269/284/267 268/282/266 236/248/234
f 238/251/236 270/285/268 269/284/267 237/250/235
f 239/252/237 271/286/269 270/285/268 238/251/236
f 240/253/238 272/287/270 271/286/269 239/252/237
f 241/254/239 273/288/271 272/287/270 240/253/238
f 242/255/240 274/289/272 273/288/271 241/254/239
f 243/256/241 275/290/273 274/289/272 242/255/240
f 244/257/242 276/291/274 275/290/273 243/256/241
f 245/258/243 277/292/275 276/291/274 244/257/242
f 246/259/244 278/293/276 277/292/275 245/258/243
f 247/260/245 279/294/277 278/293/276 246/259/244
f 248/261/246 280/295/278 279/294/277 247/260/245
f 249/262/247 281/296/279 280/295/278 248/261/246
f 250/263/248 282/297/280 281/296/279 249/262/247
f 251/264/249 283/298/281 282/297/280 250/263/248
f 252/265/250 284/299/282 283/300/281 251/266/249
f 253/267/251 285/301/283 284/299/282 252/265/250
f 254/268/252 286/302/284 285/301/283 253/267/251
f 255/269/253 287/303/285 286/302/284 254/268/252
f 256/270/254 288/304/286 287/303/285 255/269/253
f 257/271/255 289/305/287 288/304/286 256/270/254
f 258/272/256 290/306/288 289/305/287 257/271/255
f 227/240/226 259/274/258 290/306/288 258/272/256
f 260/273/257 292/307/289 291/308/290 259/274/258
f 261/275/259 293/309/291 292/307/289 260/273/257
f 262/276/260 294/310/292 293/309/291 261/275/259
f 263/277/261 295/311/293 294/310/292 262/276/260
f 264/278/262 296/312/294 295/311/293 263/277/261
f 265/279/263 297/313/295 296/312/294 264/278/262
f 266/280/264 298/314/296 297/313/295 265/279/263
f 267/281/265 299/315/297 298/314/296 266/280/264
f 268/282/266 300/316/298 299/317/297 267/283/265
f 269/284/267 301/318/299 300/316/298 268/282/266
f 270/285/268 302/319/300 301/318/299 269/284/267
f 271/286/269 303/320/301 302/319/300 270/285/268
f 272/287/270 304/321/302 303/320/301 271/286/269
f 273/288/271 305/322/303 304/321/302 272/287/270
f 274/289/272 306/323/304 305/322/303 273/288/271
f 275/290/273 307/324/305 306/323/304 274/289/272
f 276/291/274 308/325/306 307/324/305 275/290/273
f 277/292/275 309/326/307 308/325/306 276/291/274
f 278/293/276 310/327/308 309/326/307 277/292/275
f 279/294/277 311/328/309 310/327/308 278/293/276
f 280/295/278 312/329/310 311/328/309 279/294/277
f 281/296/279 313/330/311 312/329/310 280/295/278
f 282/297/280 314/331/312 313/330/311 281/296/279
f 283/298/281 315/332/313 314/331/312 282/297/280
f 284/299/282 316/333/314 315/334/313 283/300/281
f 285/301/283 317/335/315 316/333/314 284/299/282
f 286/302/284 318/336/316 317/335/315 285/301/283
f 287/303/285 319/337/317 318/336/316 286/302/284
f 288/304/286 320/338/318 319/337/317 287/303/285
f 289/305/287 321/339/319 320/338/318 288/304/286
f 290/306/288 322/340/320 321/339/319 289/305/287
f 259/274/258 291/308/290 322/340/320 290/306/288
f 292/307/289 324/341/321 323/342/322 291/308/290
f 293/309/291 325/343/323 324/341/321 292/307/289
f 294/310/292 326/344/324 325/343/323 293/309/291
f 295/311/293 327/345/325 326/344/324 294/310/292
f 296/312/294 328/346/326 327/345/325 295/311/293
f 297/313/295 329/347/327 328/346/326 296/312/294
f 298/314/296 330/348/328 329/347/327 297/313/295
f 299/315/297 331/349/329 330/348/328 298/314/296
f 300/316/298 332/350/330 331/351/329 299/317/297
f 301/318/299 333/352/331 332/350/330 300/316/298
f 302/319/300 334/353/332 333/352/331 301/318/299
f 303/320/301 335/354/333 334/353/332 302/319/300
f 304/321/302 336/355/334 335/354/333 303/320/301
f 305/322/303 337/356/335 336/355/334 304/321/302
f 306/323/304 338/357/336 337/356/335 305/322/303
f 307/324/305 339/358/337 338/357/336 306/323/304
f 308/325/306 340/359/338 339/358/337 307/324/305
f 309/326/307 341/360/339 340/359/338 308/325/306
f 310/327/308 342/361/340 341/360/339 309/326/307
f 311/328/309 343/362/341 342/361/340 310/327/308
f 312/329/310 344/363/342 343/362/341 311/328/309
f 313/330/311 345/364/343 344/363/342 312/329/310
f 314/331/312 346/365/344 345/364/343 313/330/311
f 315/332/313 347/366/345 346/365/344 314/331/312
f 316/333/314 348/367/346 347/368/345 315/334/313
f 317/335/315 349/369/347 348/367/346 316/333/314
f 318/336/316 350/370/348 349/369/347 317/335/315
f 319/337/317 351/371/349 350/370/348 318/336/316
f 320/338/318 352/372/350 351/371/349 319/337/317
f 321/339/319 353/373/351 352/372/350 320/338/318
f 322/340/320 354/374/352 353/373/351 321/339/319
f 291/308/290 323/342/322 354/374/352 322/340/320
f 324/341/321 356/375/353 355/376/354 323/342/322
f 325/343/323 357/377/355 356/375/353 324/341/321
f 326/344/324 358/378/356 357/377/355 325/343/323
f 327/345/325 359/379/357 358/378/356 326/344/324
f 328/346/326 360/380/358 359/379/357 327/345/325
f 329/347/327 361/381/359 360/380/358 328/346/326
f 330/348/328 362/382/360 361/381/359 329/347/327
f 331/349/329 363/383/361 362/382/360 330/348/328
f 332/350/330 364/384/362 363/385/361 331/351/329
f 333/352/331 365/386/363 364/384/362 332/350/330
f 334/353/332 366/387/364 365/386/363 333/352/331
f 335/354/333 367/388/365 366/387/364 334/353/332
f 336/355/334 368/389/366 367/388/365 335/354/333
f 337/356/335 369/390/367 368/389/366 336/355/334
f 338/357/336 370/391/368 369/390/367 337/356/335
f 339/358/337 371/392/369 370/391/368 338/357/336
f 340/359/338 372/393/370 371/392/369 339/358/337
f 341/360/339 373/394/371 372/393/370 340/359/338
f 342/361/340 374/395/372 373/394/371 341/360/339
f 343/362/341 375/396/373 374/395/372 342/361/340
f 344/363/342 376/397/374 375/396/373 343/362/341
f 345/364/343 377/398/375 376/397/374 344/363/342
f 346/365/344 378/399/376 377/398/375 345/364/343
f 347/366/345 379/400/377 378/399/376 346/365/344
f 348/367/346 380/401/378 379/402/377 347/368/345
f 349/369/347 381/403/379 380/401/378 348/367/346
f 350/370/348 382/404/380 381/403/379 349/369/347
f 351/371/349 383/405/381 382/404/380 350/370/348
f 352/372/350 384/406/382 383/405/381 351/371/349
f 353/373/351 385/407/383 384/406/382 352/372/350
f 354/374/352 386/408/384 385/407/383 353/373/351
f 323/342/322 355/376/354 386/408/384 354/374/352
f 356/375/353 388/409/385 387/410/386 355/376/354
f 357/377/355 389/411/387 388/409/385 356/375/353
f 358/378/356 390/412/388 389/411/387 357/377/355
f 359/379/357 391/413/389 390/412/388 358/378/356
f 360/380/358 392/414/390 391/413/389 359/379/357
f 361/381/359 393/415/391 392/414/390 360/380/358
f 362/382/360 394/416/392 393/415/391 361/381/359
f 363/383/361 395/417/393 394/416/392 362/382/360
f 364/384/362 396/418/394 395/419/393 363/385/361
f 365/386/363 397/420/395 396/418/394 364/384/362
f 366/387/364 398/421/396 397/420/395 365/386/363
f 367/388/365 399/422/397 398/421/396 366/387/364
f 368/389/366 400/423/398 399/422/397 367/388/365
f 369/390/367 401/424/399 400/423/398 368/389/366
f 370/391/368 402/425/400 401/424/399 369/390/367
f 371/392/369 403/426/401 402/425/400 370/391/368
f 372/393/370 404/427/402 403/426/401 371/392/369
f 373/394/371 405/428/403 404/427/402 372/393/370
f 374/395/372 406/429/404 405/428/403 373/394/371
f 375/396/373 407/430/405 406/429/404 374/395/372
f 376/397/374 408/431/406 407/430/405 375/396/373
f 377/398/375 409/432/407 408/431/406 376/397/374
f 378/399/376 410/433/408 409/432/407 377/398/375
f 379/400/377 411/434/409 410/433/408 378/399/376
f 380/401/378 412/435/410 411/436/409 379/402/377
f 381/403/379 413/437/411 412/435/410 380/401/378
f 382/404/380 414/438/412 413/437/411 381/403/379
f 383/405/381 415/439/413 414/438/412 382/404/380
f 384/406/382 416/440/414 415/439/413 383/405/381
f 385/407/383 417/441/415 416/440/414 384/406/382
f 386/408/384 418/442/416 417/441/415 385/407/383
f 355/376/354 387/410/386 418/442/416 386/408/384
f 388/409/385 420/443/417 419/444/418 387/410/386
f 389/411/387 421/445/419 420/443/417 388/409/385
f 390/412/388 422/446/420 421/445/419 389/411/387
f 391/413/389 423/447/421 422/446/420 390/412/388
f 392/414/390 424/448/422 423/447/421 391/413/389
f 393/415/391 425/449/423 424/448/422 392/414/390
f 394/416/392 426/450/424 425/449/423 393/415/391
f 395/417/393 427/451/425 426/450/424 394/416/392
f 396/418/394 428/452/426 427/453/425 395/419/393
f 397/420/395 429/454/427 428/452/426 396/418/394
f 398/421/396 430/455/428 429/454/427 397/420/395
f 399/422/397 431/456/429 430/455/428 398/421/396
f 400/423/398 432/457/430 431/456/429 399/422/397
f 401/424/399 433/458/431 432/457/430 400/423/398
f 402/425/400 434/459/432 433/458/431 401/424/399
f 403/426/401 435/460/433 434/459/432 402/425/400
f 404/427/402 436/461/434 435/460/433 403/426/401
f 405/428/403 437/462/435 436/461/434 404/427/402
f 406/429/404 438/463/436 437/462/435 405/428/403
f 407/430/405 439/464/437 438/463/436 406/429/404
f 408/431/406 440/465/438 439/464/437 407/430/405
f 409/432/407 441/466/439 440/465/438 408/431/406
f 410/433/408 442/467/440 441/466/439 409/432/407
f 411/434/409 443/468/441 442/467/440 410/433/408
f 412/435/410 444/469/442 443/470/441 411/436/409
f 413/437/411 445/471/443 444/469/442 412/435/410
f 414/438/412 446/472/444 445/471/443 413/437/411
f 415/439/413 447/473/445 446/472/444 414/438/412
f 416/440/414 448/474/446 447/473/445 415/439/413
f 417/441/415 449/475/447 448/474/446 416/440/414
f 418/442/416 450/476/448 449/475/447 417/441/415
f 387/410/386 419/444/418 450/476/448 418/442/416
f 420/443/417 452/477/449 451/478/450 419/444/418
f 421/445/419 453/479/451 452/477/449 420/443/417
f 422/446/420 454/480/452 453/479/451 421/445/419
f 423/447/421 455/481/453 454/480/452 422/446/420
f 424/448/422 456/482/454 455/481/453 423/447/421
f 425/449/423 457/483/455 456/482/454 424/448/422
f 426/450/424 458/484/456 457/483/455 425/449/423
f 427/451/425 459/485/457 458/484/456 426/450/424
f 428/452/426 460/486/458 459/487/457 427/453/425
f 429/454/427 461/488/459 460/486/458 428/452/426
f 430/455/428 462/489/460 461/488/459 429/454/427
f 431/456/429 463/490/461 462/489/460 430/455/428
f 432/457/430 464/491/462 463/490/461 431/456/429
f 433/458/431 465/492/463 464/491/462 432/457/430
f 434/459/432 466/493/464 465/492/463 433/458/431
f 435/460/433 467/494/465 466/493/464 434/459/432
f 436/461/434 468/495/466 467/494/465 435/460/433
f 437/462/435 469/496/467 468/495/466 436/461/434
f 438/463/436 470/497/468 469/496/467 437/462/435
f 439/464/437 471/498/469 470/497/468 438/463/436
f 440/465/438 472/499/470 471/498/469 439/464/437
f 441/466/439 473/500/471 472/499/470 440/465/438
f 442/467/440 474/501/472 473/500/471 441/466/439
f 443/468/441 475/502/473 474/501/472 442/467/440
f 444/469/442 476/503/474 475/504/473 443/470/441
f 445/471/443 477/505/475 476/503/474 444/469/442
f 446/472/444 478/506/476 477/505/475 445/471/443
f 447/473/445 479/507/477 478/506/476 446/472/444
f 448/474/446 480/508/478 479/507/477 447/473/445
f 449/475/447 481/509/479 480/508/478 448/474/446
f 450/476/448 482/510/480 481/509/479 449/475/447
f 419/444/418 451/478/450 482/510/480 450/476/448
f 4/511/1 3/512/4 1/513/481
f 2/514/482 451/515/450 452/516/449
f 5/517/5 4/511/1 1/513/481
f 2/514/482 452/516/449 453/518/451
f 6/519/7 5/517/5 1/513/481
f 2/514/482 453/518/451 454/520/452
f 7/521/9 6/519/7 1/513/481
f 2/514/482 454/520/452 455/522/453
f 8/523/11 7/521/9 1/513/481
f 2/514/482 455/522/453 456/524/454
f 9/525/13 8/523/11 1/513/481
f 2/514/482 456/524/454 457/526/455
f 10/527/15 9/525/13 1/513/481
f 2/514/482 457/526/455 458/528/456
f 11/529/17 10/527/15 1/513/481
f 2/514/482 458/528/456 459/530/457
f 12/531/19 11/529/17 1/513/481
f 2/514/482 459/530/457 460/532/458
f 13/533/21 12/531/19 1/513/481
f 2/514/482 460/532/458 461/534/459
f 14/535/23 13/533/21 1/513/481
f 2/514/482 461/534/459 462/536/460
f 15/537/25 14/535/23 1/513/481
f 2/514/482 462/536/460 463/538/461
f 16/539/27 15/537/25 1/513/481
f 2/514/482 463/538/461 464/540/462
f 17/541/29 16/539/27 1/513/481
f 2/514/482 464/540/462 465/542/463
f 18/543/31 17/541/29 1/513/481
f 2/514/482 465/542/463 466/544/464
f 19/545/33 18/543/31 1/513/481
f 2/514/482 466/544/464 467/546/465
f 20/547/35 19/545/33 1/513/481
f 2/514/482 467/546/465 468/548/466
f 21/549/37 20/547/35 1/513/481
f 2/514/482 468/548/466 469/550/467
f 22/551/39 21/549/37 1/513/481
f 2/514/482 469/550/467 470/552/468
f 23/553/41 22/551/39 1/513/481
f 2/514/482 470/552/468 471/554/469
f 24/555/43 23/553/41 1/513/481
f 2/514/482 471/554/469 472/556/470
f 25/557/45 24/555/43 1/513/481
f 2/514/482 472/556/470 473/558/471
f 26/559/47 25/557/45 1/513/481
f 2/514/482 473/558/471 474/560/472
f 27/561/49 26/559/47 1/513/481
f 2/514/482 474/560/472 475/562/473
f 28/563/51 27/561/49 1/513/481
f 2/514/482 475/562/473 476/564/474
f 29/565/53 28/563/51 1/513/481
f 2/514/482 476/564/474 477/566/475
f 30/567/55 29/565/53 1/513/481
f 2/514/482 477/566/475 478/568/476
f 31/569/57 30/567/55 1/513/481
f 2/514/482 478/568/476 479/570/477
f 32/571/59 31/569/57 1/513/481
f 2/514/482 479/570/477 480/572/478
f 33/573/61 32/571/59 1/513/481
f 2/514/482 480/572/478 481/574/479
f 34/575/63 33/573/61 1/513/481
f 2/514/482 481/574/479 482/576/480
f 3/512/4 34/575/63 1/513/481
f 2/514/482 482/576/480 451/515/450
