# Blender 5.2.2 LTS
# www.blender.org
mtllib Star_round.mtl
o Star
v 1.361447 -0.003673 -0.304015
v 1.365556 0.003673 -0.263134
v 1.433118 0.233604 -0.353859
v 1.437227 0.240950 -0.312977
v 1.612966 -0.001779 -0.329633
v 1.617075 0.005567 -0.288752
v 1.445224 -0.239780 -0.270004
v 1.449332 -0.232434 -0.229123
v 1.161705 -0.151489 -0.257376
v 1.165814 -0.144143 -0.216495
v 1.154224 0.141078 -0.309201
v 1.158333 0.148425 -0.268320
v 1.590649 0.261646 -0.374730
v 1.684071 0.139377 -0.362147
v 1.623130 0.189980 -0.365116
v 1.632103 0.264292 -0.379372
v 1.665493 0.256360 -0.381302
v 1.688545 0.238389 -0.380390
v 1.699688 0.211606 -0.376696
v 1.698162 0.177835 -0.370474
v 1.688180 0.146723 -0.321265
v 1.594758 0.268993 -0.333849
v 1.627239 0.197327 -0.324235
v 1.702271 0.185181 -0.329593
v 1.703797 0.218953 -0.335815
v 1.692654 0.245736 -0.339509
v 1.669602 0.263707 -0.340421
v 1.636212 0.271639 -0.338491
v 1.691262 -0.141811 -0.312338
v 1.604128 -0.265440 -0.281363
v 1.632932 -0.193313 -0.297220
v 1.707314 -0.180042 -0.307080
v 1.710566 -0.213778 -0.301345
v 1.700797 -0.240718 -0.295521
v 1.678673 -0.259029 -0.290007
v 1.645701 -0.267461 -0.285178
v 1.608237 -0.258093 -0.240482
v 1.695370 -0.134464 -0.271456
v 1.637041 -0.185966 -0.256339
v 1.649809 -0.260114 -0.244297
v 1.682782 -0.251682 -0.249126
v 1.704906 -0.233372 -0.254640
v 1.714674 -0.206431 -0.260463
v 1.711422 -0.172695 -0.266199
v 1.336082 -0.354366 -0.238443
v 1.188809 -0.308504 -0.231883
v 1.267551 -0.314531 -0.238714
v 1.304549 -0.380640 -0.230552
v 1.273169 -0.393558 -0.225077
v 1.244079 -0.392238 -0.222391
v 1.219263 -0.376771 -0.222676
v 1.200411 -0.348211 -0.225914
v 1.192917 -0.301157 -0.191002
v 1.340190 -0.347020 -0.197562
v 1.271660 -0.307184 -0.197833
v 1.204520 -0.340864 -0.185033
v 1.223372 -0.369425 -0.181795
v 1.248188 -0.384891 -0.181509
v 1.277277 -0.386212 -0.184196
v 1.308657 -0.373294 -0.189671
v 1.015956 -0.082276 -0.255166
v 1.012070 0.069698 -0.282087
v 1.031932 -0.006154 -0.270452
v 0.980416 -0.060283 -0.255547
v 0.957770 -0.034531 -0.257899
v 0.949561 -0.006775 -0.262062
v 0.956348 0.021095 -0.267752
v 0.977668 0.047178 -0.274582
v 1.016179 0.077044 -0.241206
v 1.020065 -0.074929 -0.214285
v 1.036040 0.001192 -0.229571
v 0.981777 0.054525 -0.233701
v 0.960456 0.028441 -0.226871
v 0.953669 0.000572 -0.221181
v 0.961878 -0.027184 -0.217018
v 0.984525 -0.052936 -0.214666
v 1.173288 0.298440 -0.339396
v 1.318159 0.346502 -0.362594
v 1.251692 0.305651 -0.348572
v 1.182856 0.338307 -0.347522
v 1.200240 0.367140 -0.354451
v 1.224255 0.382975 -0.359710
v 1.253266 0.384732 -0.362942
v 1.285295 0.372292 -0.363925
v 1.322268 0.353849 -0.321712
v 1.177396 0.305787 -0.298515
v 1.255800 0.312997 -0.307691
v 1.289404 0.379639 -0.323044
v 1.257375 0.392079 -0.322061
v 1.228364 0.390322 -0.318829
v 1.204348 0.374487 -0.313570
v 1.186964 0.345654 -0.306641
vn 0.0984 0.1760 0.9795
vn -0.1930 0.9689 -0.1547
vn -0.1375 0.9772 -0.1618
vn -0.0984 -0.1760 -0.9795
vn 0.8688 0.4647 -0.1708
vn 0.8949 0.4149 -0.1645
vn 0.7299 -0.6817 0.0492
vn 0.6905 -0.7208 0.0601
vn -0.4177 -0.8860 0.2012
vn -0.4681 -0.8604 0.2017
vn -0.9881 0.1341 0.0752
vn -0.9798 0.1890 0.0645
vn 0.9157 -0.4013 -0.0199
vn 0.8923 -0.4514 -0.0086
vn -0.0875 -0.9789 0.1847
vn -0.1434 -0.9715 0.1890
vn -0.9698 -0.2037 0.1341
vn -0.9809 -0.1490 0.1254
vn -0.5119 0.8530 -0.1018
vn -0.4628 0.8794 -0.1115
vn 0.6948 0.6925 -0.1943
vn 0.6534 0.7309 -0.1970
vn 0.5285 -0.8432 0.0984
vn 0.1885 -0.9697 0.1553
vn -0.2835 -0.9385 0.1971
vn -0.6916 -0.6956 0.1945
vn -0.9032 -0.3974 0.1622
vn -0.9232 0.3836 0.0238
vn -0.7269 0.6850 -0.0500
vn -0.3314 0.9339 -0.1345
vn 0.1389 0.9722 -0.1887
vn 0.4852 0.8508 -0.2017
vn 0.0681 0.9807 -0.1831
vn 0.4218 0.8841 -0.2013
vn 0.7900 0.5847 -0.1845
vn 0.9801 0.1534 -0.1261
vn 0.9763 -0.2079 -0.0608
vn -0.6386 -0.7437 0.1978
vn -0.8710 -0.4607 0.1703
vn -0.9948 -0.0075 0.1013
vn -0.8943 0.4474 0.0095
vn -0.6764 0.7338 -0.0639
vn 0.9653 0.2225 -0.1370
vn 0.9876 -0.1386 -0.0743
vn 0.8196 -0.5725 0.0205
vn 0.4669 -0.8774 0.1108
vn 0.1182 -0.9793 0.1641
vt 0.717659 0.677509
vt 0.551770 0.556984
vt 0.570589 0.427474
vt 0.634646 0.422021
vt 0.859275 0.001844
vt 0.893127 0.001844
vt 0.893127 0.132714
vt 0.859275 0.132714
vt 0.282056 0.322491
vt 0.077006 0.322490
vt 0.016107 0.206653
vt 0.064725 0.164590
vt 0.896818 0.001844
vt 0.930670 0.001844
vt 0.930670 0.132714
vt 0.896818 0.132714
vt 0.218693 0.127477
vt 0.310042 0.033763
vt 0.365070 0.067003
vt 0.934368 0.001844
vt 0.968219 0.001844
vt 0.968220 0.132714
vt 0.934368 0.132714
vt 0.447945 0.201966
vt 0.565301 0.259885
vt 0.550693 0.322492
vt 0.855574 0.001855
vt 0.855575 0.035707
vt 0.724704 0.035707
vt 0.724704 0.001855
vt 0.447945 0.443016
vt 0.429125 0.572526
vt 0.365069 0.577980
vt 0.220752 0.959696
vt 0.186900 0.959696
vt 0.186900 0.828826
vt 0.220752 0.828826
vt 0.218692 0.517505
vt 0.089705 0.539627
vt 0.064724 0.480391
vt 0.859275 0.303700
vt 0.893127 0.303700
vt 0.893127 0.434570
vt 0.859275 0.434570
vt 0.449022 0.677509
vt 0.434414 0.614902
vt 0.896818 0.303700
vt 0.930670 0.303700
vt 0.930670 0.434570
vt 0.896818 0.434570
vt 0.551770 0.798034
vt 0.634645 0.932998
vt 0.570589 0.927544
vt 0.934368 0.303700
vt 0.968220 0.303700
vt 0.968219 0.434570
vt 0.934368 0.434570
vt 0.983607 0.793347
vt 0.934990 0.835410
vt 0.922708 0.677510
vt 0.553719 0.001855
vt 0.553719 0.035707
vt 0.422848 0.035707
vt 0.422848 0.001855
vt 0.934990 0.519609
vt 0.983608 0.561672
vt 0.016107 0.438327
vt 0.781023 0.482495
vt 0.689674 0.388781
vt 0.434414 0.740116
vt 0.429127 0.072456
vt 0.689673 0.966237
vt 0.781022 0.872523
vt 0.565300 0.385098
vt 0.310040 0.611219
vt 0.910009 0.894646
vt 0.910009 0.460373
vt 0.186900 0.526970
vt 0.220752 0.526970
vt 0.220752 0.657840
vt 0.186900 0.657840
vt 0.003821 0.175060
vt 0.001873 0.147250
vt 0.010397 0.125118
vt 0.028812 0.110172
vt 0.055863 0.103431
vt 0.089706 0.105354
vt 0.405904 0.721778
vt 0.387982 0.700424
vt 0.381869 0.677509
vt 0.387982 0.654593
vt 0.405904 0.633239
vt 0.336291 0.012315
vt 0.362139 0.001869
vt 0.385822 0.003136
vt 0.405727 0.016031
vt 0.420497 0.039675
vt 0.663424 0.987685
vt 0.637577 0.998132
vt 0.613894 0.996864
vt 0.593989 0.983969
vt 0.579218 0.960325
vt 0.593811 0.278222
vt 0.611733 0.299576
vt 0.617846 0.322492
vt 0.611733 0.345407
vt 0.593810 0.366761
vt 0.995894 0.824939
vt 0.997842 0.852749
vt 0.989318 0.874882
vt 0.970903 0.889828
vt 0.943852 0.896569
vt 0.420496 0.605307
vt 0.405725 0.628951
vt 0.385820 0.641846
vt 0.362137 0.643114
vt 0.336290 0.632667
vt 0.943853 0.458450
vt 0.970904 0.465191
vt 0.989318 0.480137
vt 0.997842 0.502270
vt 0.995895 0.530080
vt 0.055862 0.541550
vt 0.028811 0.534809
vt 0.010396 0.519863
vt 0.001872 0.497730
vt 0.003820 0.469920
vt 0.579219 0.394693
vt 0.593989 0.371049
vt 0.613895 0.358154
vt 0.637578 0.356887
vt 0.663425 0.367333
vt 0.968220 0.166612
vt 0.934368 0.166612
vt 0.968220 0.194490
vt 0.934368 0.194490
vt 0.968220 0.218207
vt 0.934368 0.218207
vt 0.968220 0.241924
vt 0.934368 0.241924
vt 0.968220 0.269802
vt 0.934368 0.269802
vt 0.186900 0.794928
vt 0.220752 0.794928
vt 0.186900 0.767050
vt 0.220752 0.767050
vt 0.186900 0.743333
vt 0.220752 0.743333
vt 0.186900 0.719616
vt 0.220752 0.719616
vt 0.186900 0.691738
vt 0.220752 0.691738
vt 0.893127 0.166612
vt 0.859275 0.166612
vt 0.893127 0.194490
vt 0.859275 0.194490
vt 0.893127 0.218207
vt 0.859275 0.218207
vt 0.893127 0.241924
vt 0.859275 0.241924
vt 0.893127 0.269802
vt 0.859275 0.269802
vt 0.690807 0.035707
vt 0.690807 0.001855
vt 0.662928 0.035707
vt 0.662928 0.001855
vt 0.639211 0.035707
vt 0.639211 0.001855
vt 0.615494 0.035707
vt 0.615494 0.001855
vt 0.587616 0.035707
vt 0.587616 0.001855
vt 0.930670 0.166612
vt 0.896818 0.166612
vt 0.930670 0.194490
vt 0.896818 0.194490
vt 0.930670 0.218207
vt 0.896818 0.218207
vt 0.930670 0.241924
vt 0.896818 0.241924
vt 0.930670 0.269802
vt 0.896818 0.269802
s 1
usemtl Material.006
f 2/1/1 4/2/1 85/3/1 87/4/1
f 3/5/2 4/6/2 22/7/3 13/8/3
f 1/9/4 3/10/4 13/11/4 15/12/4
f 5/13/5 6/14/5 38/15/6 29/16/6
f 1/9/4 5/17/4 29/18/4 31/19/4
f 7/20/7 8/21/7 54/22/8 45/23/8
f 1/9/4 7/24/4 45/25/4 47/26/4
f 9/27/9 10/28/9 70/29/10 61/30/10
f 1/9/4 9/31/4 61/32/4 63/33/4
f 11/34/11 12/35/11 86/36/12 77/37/12
f 1/9/4 11/38/4 77/39/4 79/40/4
f 14/41/13 21/42/13 6/43/14 5/44/14
f 4/2/1 2/1/1 23/45/1 22/46/1
f 30/47/15 37/48/15 8/49/16 7/50/16
f 6/51/1 2/1/1 39/52/1 38/53/1
f 46/54/17 53/55/17 10/56/18 9/57/18
f 53/58/1 55/59/1 2/1/1 10/60/1
f 62/61/19 69/62/19 12/63/20 11/64/20
f 10/60/1 2/1/1 71/65/1 70/66/1
f 3/10/4 1/9/4 79/40/4 78/67/4
f 12/68/1 2/1/1 87/4/1 86/69/1
f 21/70/1 23/45/1 2/1/1 6/51/1
f 1/9/4 31/19/4 30/71/4 7/24/4
f 37/72/1 39/52/1 2/1/1 8/73/1
f 1/9/4 47/26/4 46/74/4 9/31/4
f 1/9/4 63/33/4 62/75/4 11/38/4
f 8/73/1 2/1/1 55/59/1 54/76/1
f 69/77/1 71/65/1 2/1/1 12/68/1
f 4/78/21 3/79/21 78/80/22 85/81/22
f 13/11/4 16/82/4 15/12/4
f 16/82/4 17/83/4 15/12/4
f 17/83/4 18/84/4 15/12/4
f 18/84/4 19/85/4 15/12/4
f 19/85/4 20/86/4 15/12/4
f 20/86/4 14/87/4 15/12/4
f 21/70/1 24/88/1 23/45/1
f 24/88/1 25/89/1 23/45/1
f 25/89/1 26/90/1 23/45/1
f 26/90/1 27/91/1 23/45/1
f 27/91/1 28/92/1 23/45/1
f 28/92/1 22/46/1 23/45/1
f 29/18/4 32/93/4 31/19/4
f 32/93/4 33/94/4 31/19/4
f 33/94/4 34/95/4 31/19/4
f 34/95/4 35/96/4 31/19/4
f 35/96/4 36/97/4 31/19/4
f 36/97/4 30/71/4 31/19/4
f 37/72/1 40/98/1 39/52/1
f 40/98/1 41/99/1 39/52/1
f 41/99/1 42/100/1 39/52/1
f 42/100/1 43/101/1 39/52/1
f 43/101/1 44/102/1 39/52/1
f 44/102/1 38/53/1 39/52/1
f 45/25/4 48/103/4 47/26/4
f 48/103/4 49/104/4 47/26/4
f 49/104/4 50/105/4 47/26/4
f 50/105/4 51/106/4 47/26/4
f 51/106/4 52/107/4 47/26/4
f 52/107/4 46/74/4 47/26/4
f 53/58/1 56/108/1 55/59/1
f 56/108/1 57/109/1 55/59/1
f 57/109/1 58/110/1 55/59/1
f 58/110/1 59/111/1 55/59/1
f 59/111/1 60/112/1 55/59/1
f 60/112/1 54/76/1 55/59/1
f 61/32/4 64/113/4 63/33/4
f 64/113/4 65/114/4 63/33/4
f 65/114/4 66/115/4 63/33/4
f 66/115/4 67/116/4 63/33/4
f 67/116/4 68/117/4 63/33/4
f 68/117/4 62/75/4 63/33/4
f 69/77/1 72/118/1 71/65/1
f 72/118/1 73/119/1 71/65/1
f 73/119/1 74/120/1 71/65/1
f 74/120/1 75/121/1 71/65/1
f 75/121/1 76/122/1 71/65/1
f 76/122/1 70/66/1 71/65/1
f 77/39/4 80/123/4 79/40/4
f 80/123/4 81/124/4 79/40/4
f 81/124/4 82/125/4 79/40/4
f 82/125/4 83/126/4 79/40/4
f 83/126/4 84/127/4 79/40/4
f 84/127/4 78/67/4 79/40/4
f 85/3/1 88/128/1 87/4/1
f 88/128/1 89/129/1 87/4/1
f 89/129/1 90/130/1 87/4/1
f 90/130/1 91/131/1 87/4/1
f 91/131/1 92/132/1 87/4/1
f 92/132/1 86/69/1 87/4/1
f 45/23/8 54/22/8 60/133/23 48/134/23
f 48/134/23 60/133/23 59/135/24 49/136/24
f 49/136/24 59/135/24 58/137/25 50/138/25
f 50/138/25 58/137/25 57/139/26 51/140/26
f 51/140/26 57/139/26 56/141/27 52/142/27
f 52/142/27 56/141/27 53/55/17 46/54/17
f 77/37/12 86/36/12 92/143/28 80/144/28
f 80/144/28 92/143/28 91/145/29 81/146/29
f 81/146/29 91/145/29 90/147/30 82/148/30
f 82/148/30 90/147/30 89/149/31 83/150/31
f 83/150/31 89/149/31 88/151/32 84/152/32
f 84/152/32 88/151/32 85/81/22 78/80/22
f 13/8/3 22/7/3 28/153/33 16/154/33
f 16/154/33 28/153/33 27/155/34 17/156/34
f 17/156/34 27/155/34 26/157/35 18/158/35
f 18/158/35 26/157/35 25/159/36 19/160/36
f 19/160/36 25/159/36 24/161/37 20/162/37
f 20/162/37 24/161/37 21/42/13 14/41/13
f 61/30/10 70/29/10 76/163/38 64/164/38
f 64/164/38 76/163/38 75/165/39 65/166/39
f 65/166/39 75/165/39 74/167/40 66/168/40
f 66/168/40 74/167/40 73/169/41 67/170/41
f 67/170/41 73/169/41 72/171/42 68/172/42
f 68/172/42 72/171/42 69/62/19 62/61/19
f 29/16/6 38/15/6 44/173/43 32/174/43
f 32/174/43 44/173/43 43/175/44 33/176/44
f 33/176/44 43/175/44 42/177/45 34/178/45
f 34/178/45 42/177/45 41/179/46 35/180/46
f 35/180/46 41/179/46 40/181/47 36/182/47
f 36/182/47 40/181/47 37/48/15 30/47/15
f 1/9/4 15/12/4 14/87/4 5/17/4
